<mxfile host="Electron" agent="Mozilla/5.0 (Windows NT 10.0; Win64; x64) AppleWebKit/537.36 (KHTML, like Gecko) draw.io/27.0.5 Chrome/134.0.6998.205 Electron/35.3.0 Safari/537.36" version="27.0.5" pages="4">
  <diagram name="Page-1" id="WOf9486LqnUHYk-fnlfq">
    <mxGraphModel dx="475" dy="296" grid="1" gridSize="10" guides="1" tooltips="1" connect="1" arrows="1" fold="1" page="1" pageScale="1" pageWidth="827" pageHeight="1169" math="1" shadow="0">
      <root>
        <mxCell id="0" />
        <mxCell id="1" parent="0" />
        <mxCell id="hE_dgyIdheJrwpj0oEro-1" value="Statistical Model (Ch.3)" style="shape=hexagon;perimeter=hexagonPerimeter2;whiteSpace=wrap;fixedSize=1;size=16;fillColor=#FFE599;strokeColor=#36393d;fontFamily=ADLaM Display;fontSize=20;strokeWidth=2;align=center;spacingLeft=0;spacingBottom=5;fillStyle=hachure;fontStyle=1;rounded=1;arcSize=14;fontSource=https%3A%2F%2Ffonts.googleapis.com%2Fcss%3Ffamily%3DADLaM%2BDisplay;" parent="1" vertex="1">
          <mxGeometry x="264" y="40" width="299.32" height="57.14" as="geometry" />
        </mxCell>
        <mxCell id="hE_dgyIdheJrwpj0oEro-2" value="`P(x_1) + P(x_2) + ...&amp;nbsp; = \sum_{i=1}^{\infty} P(x_i) =&amp;nbsp; 1`" style="text;html=1;align=center;verticalAlign=middle;resizable=0;points=[];autosize=1;strokeColor=none;fillColor=none;" parent="1" vertex="1">
          <mxGeometry x="140" y="160" width="310" height="30" as="geometry" />
        </mxCell>
        <mxCell id="hE_dgyIdheJrwpj0oEro-3" value="`P(x_ᵢ) = P(X = x_ᵢ)`" style="text;html=1;align=center;verticalAlign=middle;resizable=0;points=[];autosize=1;strokeColor=none;fillColor=none;" parent="1" vertex="1">
          <mxGeometry x="140" y="200" width="130" height="30" as="geometry" />
        </mxCell>
        <mxCell id="hE_dgyIdheJrwpj0oEro-4" value="`P(x_ᵢ) \ge 0`" style="text;html=1;align=center;verticalAlign=middle;resizable=0;points=[];autosize=1;strokeColor=none;fillColor=none;" parent="1" vertex="1">
          <mxGeometry x="140" y="240" width="90" height="30" as="geometry" />
        </mxCell>
        <mxCell id="hE_dgyIdheJrwpj0oEro-5" value="`P(a\le x\le b) = \int_{a}^{b} f(x) \cdot dx` &lt;font face=&quot;Mali&quot; data-font-src=&quot;https://fonts.googleapis.com/css?family=Mali&quot; style=&quot;color: rgb(234, 107, 102);&quot;&gt;&lt;b style=&quot;&quot;&gt;if not?&lt;/b&gt;&lt;/font&gt; `f(x) = 0`" style="text;html=1;align=center;verticalAlign=middle;resizable=0;points=[];autosize=1;strokeColor=none;fillColor=none;" parent="1" vertex="1">
          <mxGeometry x="140" y="280" width="330" height="30" as="geometry" />
        </mxCell>
        <mxCell id="hE_dgyIdheJrwpj0oEro-6" value="`P(a\le x\le b) = \int_{a}^{b} f(x) dx`" style="text;html=1;align=center;verticalAlign=middle;resizable=0;points=[];autosize=1;strokeColor=none;fillColor=none;" parent="1" vertex="1">
          <mxGeometry x="140" y="320" width="210" height="30" as="geometry" />
        </mxCell>
        <mxCell id="hE_dgyIdheJrwpj0oEro-7" value="`P(a\le X \le b) = P(a\le X &amp;lt; b) = P(a &amp;lt; X \le b) = P(a &amp;lt; X &amp;lt; b)`" style="text;html=1;align=center;verticalAlign=middle;resizable=0;points=[];autosize=1;strokeColor=none;fillColor=none;" parent="1" vertex="1">
          <mxGeometry x="140" y="370" width="350" height="30" as="geometry" />
        </mxCell>
        <mxCell id="hE_dgyIdheJrwpj0oEro-9" value="لو انا لسه في طابور محل الكشري &lt;br&gt;و عايز اعرف احتمالية اني استلم الاوردر&lt;br&gt;&amp;nbsp;في أقل من دقيقتين" style="text;html=1;align=right;verticalAlign=middle;resizable=0;points=[];autosize=1;strokeColor=none;fillColor=none;fontFamily=Beiruti;fontSource=https%3A%2F%2Ffonts.googleapis.com%2Fcss%3Ffamily%3DBeiruti;" parent="1" vertex="1">
          <mxGeometry x="140" y="400" width="160" height="60" as="geometry" />
        </mxCell>
        <mxCell id="hE_dgyIdheJrwpj0oEro-10" value="`P(x &amp;lt; 2) = \int_{0}^{2} f(x) dx`" style="text;html=1;align=center;verticalAlign=middle;resizable=0;points=[];autosize=1;strokeColor=none;fillColor=none;" parent="1" vertex="1">
          <mxGeometry x="140" y="480" width="180" height="30" as="geometry" />
        </mxCell>
        <mxCell id="hE_dgyIdheJrwpj0oEro-11" value="يعني احتمالية ان الـ `X`&amp;nbsp; تبقي بقيمة افل او تساوي الـ `X`&amp;nbsp;" style="text;html=1;align=center;verticalAlign=middle;resizable=0;points=[];autosize=1;strokeColor=none;fillColor=none;fontFamily=Beiruti;fontSource=https%3A%2F%2Ffonts.googleapis.com%2Fcss%3Ffamily%3DBeiruti;textDirection=rtl;" parent="1" vertex="1">
          <mxGeometry x="140" y="535" width="230" height="30" as="geometry" />
        </mxCell>
        <mxCell id="hE_dgyIdheJrwpj0oEro-13" value="`F(x) = P(X \le x)`" style="text;html=1;align=center;verticalAlign=middle;resizable=0;points=[];autosize=1;strokeColor=none;fillColor=none;" parent="1" vertex="1">
          <mxGeometry x="140" y="610" width="120" height="30" as="geometry" />
        </mxCell>
        <mxCell id="hE_dgyIdheJrwpj0oEro-14" value="`F(x) = \int_{-infty}^{x} f(t) dt`" style="text;html=1;align=center;verticalAlign=middle;resizable=0;points=[];autosize=1;strokeColor=none;fillColor=none;" parent="1" vertex="1">
          <mxGeometry x="140" y="660" width="170" height="30" as="geometry" />
        </mxCell>
        <mxCell id="hE_dgyIdheJrwpj0oEro-15" value="`F(x) = sum_{x_i \le x} P(x_i) =&amp;nbsp; 1`" style="text;html=1;align=center;verticalAlign=middle;resizable=0;points=[];autosize=1;strokeColor=none;fillColor=none;" parent="1" vertex="1">
          <mxGeometry x="260" y="710" width="200" height="30" as="geometry" />
        </mxCell>
        <mxCell id="hE_dgyIdheJrwpj0oEro-16" value="Non-decreasing" style="text;html=1;align=left;verticalAlign=middle;resizable=0;points=[];autosize=1;strokeColor=none;fillColor=none;" parent="1" vertex="1">
          <mxGeometry x="140" y="720" width="110" height="30" as="geometry" />
        </mxCell>
        <mxCell id="hE_dgyIdheJrwpj0oEro-17" value="&lt;div&gt;`a \le b`, then `F(a) \le F(b)`&lt;/div&gt;" style="text;html=1;align=left;verticalAlign=middle;resizable=0;points=[];autosize=1;strokeColor=none;fillColor=none;" parent="1" vertex="1">
          <mxGeometry x="140" y="753" width="170" height="30" as="geometry" />
        </mxCell>
        <mxCell id="hE_dgyIdheJrwpj0oEro-18" value="&lt;div&gt;&lt;span style=&quot;background-color: transparent; color: light-dark(rgb(0, 0, 0), rgb(255, 255, 255));&quot;&gt;`\lim_{x \to -\infty} F(x) = 0`&lt;/span&gt;&lt;/div&gt;" style="text;html=1;align=left;verticalAlign=middle;resizable=0;points=[];autosize=1;strokeColor=none;fillColor=none;" parent="1" vertex="1">
          <mxGeometry x="140" y="820" width="170" height="30" as="geometry" />
        </mxCell>
        <mxCell id="hE_dgyIdheJrwpj0oEro-19" value="`\lim_{x \to \infty} F(x) = 1`" style="text;html=1;align=left;verticalAlign=middle;resizable=0;points=[];autosize=1;strokeColor=none;fillColor=none;" parent="1" vertex="1">
          <mxGeometry x="140" y="787" width="160" height="30" as="geometry" />
        </mxCell>
        <mxCell id="hE_dgyIdheJrwpj0oEro-20" value="`P(a\le x\le b) = F(b) - F(a)`" style="text;html=1;align=center;verticalAlign=middle;resizable=0;points=[];autosize=1;strokeColor=none;fillColor=none;" parent="1" vertex="1">
          <mxGeometry x="140" y="860" width="170" height="30" as="geometry" />
        </mxCell>
        <mxCell id="hE_dgyIdheJrwpj0oEro-21" value="`P(2 \leq x \leq 3) = \frac{1}{2} \int_{2}^{3} e^{-x/2} dx = \frac{1}{2} \left[ -2 e^{-x/2} \right]_{2}^{3}&amp;nbsp; = 0.145`" style="text;html=1;align=center;verticalAlign=middle;resizable=0;points=[];autosize=1;strokeColor=none;fillColor=none;" parent="1" vertex="1">
          <mxGeometry x="140" y="940" width="580" height="30" as="geometry" />
        </mxCell>
        <mxCell id="hE_dgyIdheJrwpj0oEro-22" value="`P(2 \leq x \leq 3) = \left[1 - e^{-x/2}\right]_{2}^{3}&amp;nbsp;= (1 - e^{-3/2}) - (1 - e^{-2/2}) \approx 0.14474 \approx 0.145`" style="text;html=1;align=center;verticalAlign=middle;resizable=0;points=[];autosize=1;strokeColor=none;fillColor=none;" parent="1" vertex="1">
          <mxGeometry x="140" y="990" width="610" height="30" as="geometry" />
        </mxCell>
        <mxCell id="hE_dgyIdheJrwpj0oEro-23" value="`P(0 \leq X \leq 2) = F(2) - F(0) = F(2) = 1 - e^{-1} = 0.632`" style="text;html=1;align=center;verticalAlign=middle;resizable=0;points=[];autosize=1;strokeColor=none;fillColor=none;" parent="1" vertex="1">
          <mxGeometry x="140" y="1050" width="330" height="30" as="geometry" />
        </mxCell>
        <mxCell id="yE8Bl2Y1u9utJU5WfvuA-1" value="بيعرفني قد إيه القيم بتبعد عن الـ Mean&amp;nbsp;" style="text;html=1;align=center;verticalAlign=middle;resizable=0;points=[];autosize=1;strokeColor=none;fillColor=none;fontFamily=Beiruti;fontSource=https%3A%2F%2Ffonts.googleapis.com%2Fcss%3Ffamily%3DBeiruti;textDirection=rtl;" parent="1" vertex="1">
          <mxGeometry x="460" y="600" width="170" height="30" as="geometry" />
        </mxCell>
        <mxCell id="yE8Bl2Y1u9utJU5WfvuA-2" value="زي الـ Variance بس بوحدة مفهومة (عدد زباين، ...)" style="text;html=1;align=center;verticalAlign=middle;resizable=0;points=[];autosize=1;strokeColor=none;fillColor=none;fontFamily=Beiruti;fontSource=https%3A%2F%2Ffonts.googleapis.com%2Fcss%3Ffamily%3DBeiruti;textDirection=rtl;" parent="1" vertex="1">
          <mxGeometry x="420" y="630" width="210" height="30" as="geometry" />
        </mxCell>
        <mxCell id="UpKMaLktLhD9NpLo18jT-1" value="`\mu_{LeadTime} = \frac{sum_{i = 1}^n x_i}{n} = \frac{6.5+&amp;nbsp;4.3+&amp;nbsp;6.9+&amp;nbsp;6.0+&amp;nbsp;6.9+&amp;nbsp;6.9+&amp;nbsp;5.8+&amp;nbsp;7.3+&amp;nbsp;4.5 + 6.3}{10} =6.14 `" style="text;html=1;align=center;verticalAlign=middle;resizable=0;points=[];autosize=1;strokeColor=none;fillColor=none;" parent="1" vertex="1">
          <mxGeometry x="20" y="1250" width="640" height="30" as="geometry" />
        </mxCell>
        <mxCell id="UpKMaLktLhD9NpLo18jT-2" value="`\mu_{Demand} = \frac{sum_{i = 1}^n x_i}{n} = \frac{103 + 83 + 116 + 97 + 112 + 104 + 106 + 109 + 92 + 96}{10} =101.8`" style="text;html=1;align=center;verticalAlign=middle;resizable=0;points=[];autosize=1;strokeColor=none;fillColor=none;" parent="1" vertex="1">
          <mxGeometry x="20" y="1320" width="660" height="30" as="geometry" />
        </mxCell>
        <mxCell id="UpKMaLktLhD9NpLo18jT-3" value="&lt;div&gt;`\sigma = \sqrt{ \frac{ \sum_{i=1}^n (x_i - \mu)^2&amp;nbsp; }{n}`&lt;/div&gt;" style="text;html=1;align=center;verticalAlign=middle;resizable=0;points=[];autosize=1;strokeColor=none;fillColor=none;" parent="1" vertex="1">
          <mxGeometry x="50" y="1390" width="310" height="30" as="geometry" />
        </mxCell>
        <mxCell id="UpKMaLktLhD9NpLo18jT-8" value="&lt;div&gt;&lt;span style=&quot;background-color: transparent;&quot;&gt;`\text{Cov}(X, Y) = \frac{1}{n} \sum_{i=1}^{n} (x_i - \mu_{x})(y_i - \mu_{y}) = \frac{(6.5 - 6.14)(103 - 101.8) + \cdots + (6.3 - 6.14)(96 - 101.8)}{10} = 7.80`&lt;/span&gt;&lt;/div&gt;" style="text;html=1;align=center;verticalAlign=middle;resizable=0;points=[];autosize=1;strokeColor=none;fillColor=none;" parent="1" vertex="1">
          <mxGeometry y="1620" width="820" height="30" as="geometry" />
        </mxCell>
        <mxCell id="UpKMaLktLhD9NpLo18jT-9" value="&lt;div&gt;`\hat{\sigma}_1^2 = \frac{386.44 - 10(37.7)}{9} = \frac{386.44 - 377}{9} = \frac{9.44}{9} = 1.04`&lt;/div&gt;" style="text;html=1;align=center;verticalAlign=middle;resizable=0;points=[];autosize=1;strokeColor=none;fillColor=none;" parent="1" vertex="1">
          <mxGeometry y="1710" width="520" height="30" as="geometry" />
        </mxCell>
        <mxCell id="UpKMaLktLhD9NpLo18jT-11" value="&lt;div&gt;`\hat{\sigma}^2 = \frac{\sum_{i=1}^{n} X_i^2 - n\bar{X}^2}{n - 1}`&lt;/div&gt;" style="text;html=1;align=center;verticalAlign=middle;resizable=0;points=[];autosize=1;strokeColor=none;fillColor=none;" parent="1" vertex="1">
          <mxGeometry x="72.5" y="1770" width="360" height="30" as="geometry" />
        </mxCell>
        <mxCell id="UpKMaLktLhD9NpLo18jT-12" value="&lt;div&gt;&lt;span style=&quot;background-color: transparent;&quot;&gt;`\hat{\sigma} = \sqrt{\hat{\sigma}^2}`&lt;/span&gt;&lt;/div&gt;" style="text;html=1;align=center;verticalAlign=middle;resizable=0;points=[];autosize=1;strokeColor=none;fillColor=none;" parent="1" vertex="1">
          <mxGeometry x="27.5" y="1770" width="220" height="30" as="geometry" />
        </mxCell>
        <mxCell id="UpKMaLktLhD9NpLo18jT-14" value="&lt;div&gt;&lt;span style=&quot;background-color: transparent;&quot;&gt;`\rho_{X,Y} = \frac{\text{Cov}(X, Y)}{\hat{\sigma}_X \cdot \hat{\sigma}_Y}`&lt;/span&gt;&lt;/div&gt;" style="text;html=1;align=center;verticalAlign=middle;resizable=0;points=[];autosize=1;strokeColor=none;fillColor=none;" parent="1" vertex="1">
          <mxGeometry x="47.5" y="1830" width="410" height="30" as="geometry" />
        </mxCell>
        <mxCell id="UpKMaLktLhD9NpLo18jT-15" value="&lt;div&gt;&lt;span style=&quot;background-color: transparent;&quot;&gt;`\mu = \sum_{i=1}^{n} X_i \cdot P(X_i)`&lt;/span&gt;&lt;/div&gt;" style="text;html=1;align=center;verticalAlign=middle;resizable=0;points=[];autosize=1;strokeColor=none;fillColor=none;" parent="1" vertex="1">
          <mxGeometry x="264" y="1930" width="230" height="30" as="geometry" />
        </mxCell>
        <mxCell id="8gi4yrrcjp4P46ncQ63N-1" value="&lt;span style=&quot;font-family: Helvetica; font-weight: 400; text-wrap-mode: nowrap;&quot;&gt;`\sigma_{LeadTime} = \sqrt{ \frac{1}{n} \sum_{i=1}^{n} (x_i - \mu_{x})^2 } =`&lt;/span&gt;" style="text;html=1;align=center;verticalAlign=middle;whiteSpace=wrap;rounded=0;fontFamily=Mina;fontStyle=1" parent="1" vertex="1">
          <mxGeometry x="76.43" y="1450" width="273.57" height="60" as="geometry" />
        </mxCell>
        <mxCell id="6hGKmJXNHkPfGkvqWRHk-1" value="&lt;span style=&quot;font-family: Helvetica; font-weight: 400; text-wrap-mode: nowrap;&quot;&gt;`\sigma_{Demand} = \sqrt{ \frac{1}{n} \sum_{i=1}^{n} (y_i - \mu_{y})^2 } =`&lt;/span&gt;" style="text;html=1;align=center;verticalAlign=middle;whiteSpace=wrap;rounded=0;fontFamily=Mina;fontStyle=1" parent="1" vertex="1">
          <mxGeometry x="65.43" y="1540" width="277.14" height="60" as="geometry" />
        </mxCell>
        <mxCell id="TxAHqwkLYFe7m8ob8W4E-1" value="&lt;span style=&quot;font-family: Helvetica; font-weight: 400; text-wrap-mode: nowrap;&quot;&gt;`\sqrt{ \frac{(6.5 - 6.14)^2 + \cdots + (6.3 - 6.14)^2}{10} } = \sqrt{0.9444} = 0.972`&lt;/span&gt;" style="text;html=1;align=center;verticalAlign=middle;whiteSpace=wrap;rounded=0;fontFamily=Mina;fontStyle=1" parent="1" vertex="1">
          <mxGeometry x="320" y="1450" width="357.14" height="60" as="geometry" />
        </mxCell>
        <mxCell id="f5gUung1pFi6Vh4uCZ9g-1" value="&lt;span style=&quot;font-family: Helvetica; font-weight: 400; text-wrap-mode: nowrap;&quot;&gt;`\sqrt{ \frac{(103 - 101.8)^2 + \cdots + (96 - 101.8)^2}{10} } = \sqrt{88.77} = 9.42`&lt;/span&gt;" style="text;html=1;align=center;verticalAlign=middle;whiteSpace=wrap;rounded=0;fontFamily=Mina;fontStyle=1" parent="1" vertex="1">
          <mxGeometry x="310" y="1540" width="350" height="60" as="geometry" />
        </mxCell>
        <mxCell id="8meyoXz7tHv6C0tHwlLl-1" value="&lt;div&gt;`f(x) = \begin{cases} \frac{1}{2} e^{-x/2}, &amp;amp; x \geq 0 \\ 0, &amp;amp; \text{otherwise} \end{cases}`&lt;/div&gt;" style="text;html=1;align=center;verticalAlign=middle;resizable=0;points=[];autosize=1;strokeColor=none;fillColor=none;" parent="1" vertex="1">
          <mxGeometry x="120" y="2090" width="480" height="30" as="geometry" />
        </mxCell>
        <mxCell id="8meyoXz7tHv6C0tHwlLl-2" value="&lt;div&gt;\[ f(x) = \begin{cases} \frac{1}{2} e^{-x/2} &amp;amp; x \geq 0 \\ 0 &amp;amp; \text{otherwise} \end{cases} \]&lt;/div&gt;" style="text;html=1;align=center;verticalAlign=middle;resizable=0;points=[];autosize=1;strokeColor=none;fillColor=none;" parent="1" vertex="1">
          <mxGeometry x="130" y="2210" width="490" height="30" as="geometry" />
        </mxCell>
        <mxCell id="jJ8PJhb2A2hHYkckwI-6-2" value="&lt;div&gt;\[ f(x) = \begin{cases} \frac{1}{2} e^{-x/2} &amp;amp; x \geq 0 \\ 0 &amp;amp; \text{otherwise} \end{cases} \]&lt;/div&gt;" style="text;html=1;align=center;verticalAlign=middle;resizable=0;points=[];autosize=1;strokeColor=none;fillColor=none;" parent="1" vertex="1">
          <mxGeometry x="140" y="2290" width="490" height="30" as="geometry" />
        </mxCell>
        <mxCell id="EcaHbdEA4cePfOja3oWW-1" value="&lt;div&gt;`f(x) = \begin{cases} \frac{1}{2} e^{-x/2} &amp;amp; x \geq 0 \\ 0 &amp;amp; \text{otherwise} \end{cases} `&lt;/div&gt;" style="text;html=1;align=center;verticalAlign=middle;resizable=0;points=[];autosize=1;strokeColor=none;fillColor=none;" vertex="1" parent="1">
          <mxGeometry x="450" y="2170" width="480" height="30" as="geometry" />
        </mxCell>
      </root>
    </mxGraphModel>
  </diagram>
  <diagram id="cAbZK5lkuBDKHxEaB9qF" name="ex1-sheet">
    <mxGraphModel dx="1072" dy="-506" grid="1" gridSize="10" guides="1" tooltips="1" connect="1" arrows="1" fold="1" page="1" pageScale="1" pageWidth="827" pageHeight="1169" background="none" math="1" shadow="0">
      <root>
        <mxCell id="0" />
        <mxCell id="1" parent="0" />
        <mxCell id="Ma2gzd2hbYyDEmxCTsBG-13" value="`\mu_{Demand} = \frac{sum_{i = 1}^n x_i}{n} = \frac{103 + 83 + 116 + 97 + 112 + 104 + 106 + 109 + 92 + 96}{10} =101.8`" style="text;html=1;align=left;verticalAlign=middle;resizable=0;points=[];autosize=1;strokeColor=none;fillColor=none;fontColor=#000099;fontStyle=0;flipV=1;" parent="1" vertex="1">
          <mxGeometry x="40" y="1614" width="660" height="30" as="geometry" />
        </mxCell>
        <mxCell id="Ma2gzd2hbYyDEmxCTsBG-21" value="&lt;div&gt;&lt;span style=&quot;background-color: transparent;&quot;&gt;`\rho = \frac{\hat{\text{Cov}}(X_{LeadTime}, X_{Demand})}{\hat{\sigma}_{\text{LeadTime}}&amp;nbsp;\cdot \hat{\sigma}_{\text{Demand}}`&lt;/span&gt;&lt;/div&gt;" style="text;html=1;align=left;verticalAlign=middle;resizable=0;points=[];autosize=1;strokeColor=none;fillColor=none;flipV=1;fontColor=#5B7295;" parent="1" vertex="1">
          <mxGeometry x="42" y="2191" width="690" height="30" as="geometry" />
        </mxCell>
        <mxCell id="feYQ3WDWf9__3DX3kqpM-1" value="&lt;div&gt;The following data are available on demand and lead&amp;nbsp;&lt;span style=&quot;background-color: transparent; color: light-dark(rgb(0, 0, 0), rgb(255, 255, 255));&quot;&gt;time &lt;/span&gt;&lt;span style=&quot;color: light-dark(rgb(0, 0, 0), rgb(255, 255, 255)); background-color: rgb(255, 229, 153);&quot;&gt;for last 10 years&lt;/span&gt;&lt;span style=&quot;background-color: transparent; color: light-dark(rgb(0, 0, 0), rgb(255, 255, 255));&quot;&gt;.&lt;br&gt;Determine the correlation.&lt;/span&gt;&lt;/div&gt;" style="text;html=1;align=left;verticalAlign=middle;resizable=0;points=[];autosize=1;strokeColor=none;fillColor=none;fontStyle=0;fontSize=14;" parent="1" vertex="1">
          <mxGeometry x="42" y="1221" width="490" height="50" as="geometry" />
        </mxCell>
        <mxCell id="feYQ3WDWf9__3DX3kqpM-2" value="" style="shape=image;verticalLabelPosition=bottom;labelBackgroundColor=default;verticalAlign=top;aspect=fixed;imageAspect=0;image=data:image/png,iVBORw0KGgoAAAANSUhEUgAAAUoAAAKmCAYAAAArR9dhAAAAAXNSR0IArs4c6QAAAARnQU1BAACxjwv8YQUAAAAJcEhZcwAADsMAAA7DAcdvqGQAAHB8SURBVHhe7d17WJVluj/w70IOghwUEA8oBwUPhKJ5qPGQOJI7M8Nd/tpObqcaNavJUhsrra4am8wy89Ts2bObssnTjFNpo6WOheezoigqiAiKAUEKiBAIrPv3x7CeWe8j8C5wgcR8P9e1ruvt/T7PCy7uda+13lMWEREQEVGtXPQVRERkxEZJRGSCjZKIyITFkX2UFotFX0VE1GKYtUF+oiQiMlGvT5QODCVqNli3ZMbRGuEnSiIiE2yUREQm2CiJiEywURIRmWCjdKL8/Hx9FRE5SWVlJQoKCvTVTaLJjnpfvnwZ58+f11crsbGx+qqfhIKCAuzduxfr1q3D+vXrUVlZqQ+h26Qp6tambdu28PHxQadOneDl5aXH1EBVVVU4e/YstmzZgj/+8Y/47//+b7zxxhv6sAZzuEbEAQDEwaG1Wr16tfTu3Vvc3NzU9gCIv7+/xMTE6MN/ErZt2yaenp6Gf09jKC0tlQ8++EC2bdumR1QHZ/xNVq9eLb169ZJWrVoZ/s51PXr27CkvvPCCpKWl6Zujeho5cqRYLBb13L7++uv6kFviaI2Yj6jHxhyxfft2tb3g4GApKyvTh/ykVFRUyLBhw5z6HOmefvpptf3ExEQ9plo482/yxRdfqO3169dPiouLVfbjjz9Kdna27NmzR373u99JRESEAJBWrVrJvHnzpLKy0rAtqp+tW7eq5/52Ncom30fZp08ftdy9e3d4eHgY8p8aV1dXdO/eXV9dL+fPn8fUqVP11UpSUlKNy9R0oqKi1HJoaCi8vb3Vf7du3RqdOnXCsGHD8Morr+DMmTN46aWXUFVVhQULFmDy5MnmX+2oVj179tRXNbkmb5T2jZHXkP/T5s2bcfToUX218vOf/xwA4O7ujiFDhugxNYH6vKG7ublh4cKFeP755wEA69atw6JFi/Rh9BPS5I2SjEQEq1at0lcbzJ8/H9u3b0dycjJ69Oihx9RMvf322+jatSsA4Le//S1yc3P1IfQT0WIaZX5+Pq5cuaKvrlVVVRXy8/ORk5ODsrIyPa5TXl6e005TeP/995GYmKivNrBYLIiLi0NoaCisVqseKz/++KPhvysqKvDdd9/V+u+zWq3IycnB9evX9ahWZWVlyMnJQXl5uR6RxtPTE9OmTQMAlJaW4qOPPtKHGNT3uW3sv3dDXiP671RZWYnc3FzcuHHDsL4uZWVlyM7ORkVFhR7dPvpOy5o4usPTEQUFBWp7I0aM0ON6yc7OlqeffloCAgLUNgMDA2X27NlSUFCgDxcRkR07dsh//Md/iKenpzqa5uLiInfffbd8++23+nAlKytLHn/8cfH19VU/q1u3bvLHP/5RHnvssXo/R7t375Z77rlHzWvTpo2MGDFCRowYIc8//7waV1FRIUeOHJG5c+dKhw4dZMeOHYbt3LhxQw4dOiRz5swRX19fyc7Olu+//16mTZsmXl5eguqDCuPGjZPLly+LiEhxcbHMmjVL/Pz81M8fMmSInDhxwrBte+vXr5e77rpLPWcWi0WGDh3arI/E1/dvUpeMjAy1vfj4eD2u1enTp9W8wYMH67FIPZ/bpvh71/c1UlpaKjt27JApU6ZIhw4dRETk3Llz8p//+Z/i6uoqAMTd3V0eeeQR+eGHH/TpIiJitVrlz3/+s9x5553qd3R3d5cJEybIzp071brbdTDHfEQ9NuYIZzXKM2fOSIcOHQSAvPzyy3Lt2jUpKiqS3/zmNwJAoqOjb2qWH330kfqj/+lPf5Ly8nIpLS2VefPmCQBxc3OT/fv3G+aIiBw7dkzatm0rAOSee+6RXbt2SWZmpqxdu1a6dOliOEXIUefPn5cNGzZIWFiYAJCwsDDZsGGDbNiwQfbs2SMiIu+///5Np1PZN8ozZ85I69atDfnf/vY36dKlizz//POyd+9e+eMf/6heQAMGDJBLly5J7969ZcqUKbJv3z7ZuHGjdOnSRQBI+/bt5cqVK3a/5T8999xzAkC6d+8uBw4cEBGR/fv3S2hoqACQDz/8UJ/SLNT3b1KXhjbKyspK9Tdyd3cXq9VqyOvz3DbF37u+r5EDBw7UWKPt2rWTl19+Wfbt2ycffPCBeHh4CAAZM2aM4edJdZO0fdjw9PSURYsWSXp6upw4cUIef/xxw+uLjbIeKioq5I477hAAMnnyZD1Wn9Seeuopw3rbJ89Zs2YZ1ldVVammO378eENWVlYmPXv2FFQXXnl5uSHPysqSTp06Nfg5iomJEQC1nktaUVEhzz77rNq+/omysrJSpkyZovLWrVvL+vXrDWNee+01lfv7+8vvf/97Q75hwwaVr1ixwpCtW7dOAIirq6ukpKQYsoSEBPUzMzIyDFlz0NC/SU0a2ihFRLp3767m2n+iashz29h/74a8Rn788UeJjY1V2wwICJAtW7YYxjz//PMqz8zMNGSffPKJyj7//HNDJtq/h42yHmwFBkCOHj2qx/LHP/5RUF1E9p8qf/7zn0uPHj3k0qVLhvEiInFxcQJAwsPDDes//fRT9bM+++wzQ2bTkK/eNmaNUkRk5cqVavt6oxQR+b//+z+Vv/POO3os33zzjcofffRRPZbi4mKVT5kyRa23Wq3Sq1cvASAPPPCAYY6N7U3i5Zdf1qPbrqF/k5rcSqO0/Y0BqKZ3K89tY/29pYGvEdEa4R/+8Ac9NjTDr7/+Wq23Wq3qjSQ6Otowx8b+ub9djfIneTDns88+AwB4e3ujf//+eqzWlZWVYefOnWr9t99+i9TUVHUk0l6bNm0AAFevXjWs//zzz9Xy6NGjDVlz4ebmppYHDx5syAAgMDBQLUdGRhoyVD+PrVu3BgD88MMPav3p06eRkpICALjnnnvUenu253rLli16RNX++Xr8J09PT+AWn9vG+nujga8RVF/CaXPfffcZMgDw8/NTy/YHq5KSkpCeng4A+I//+A+1vrn5STbKY8eOAQACAgJw8uRJnDhxwvCwvzlFcnKy3UyjH374AX/9618xdepU7N69W48BuxO8O3XqBB8fHz3+SbAv0trUdJ6g7XlG9RFQ/Xk+ceIEWrVqBZg8z//u7M+QaNeuHdDIz21D/941ceQ1civsL6Bozqe+/SQbZV5eHgAgKysLsbGxNz0effRR+Pn5wc/PD6WlpYa5IoLPP/8co0aNQlBQEGbPng0/P79ar66xNV37d+l/F7bnGQDefPPNm57n2NhY7N69G35+fvD29sa1a9cM8wkoLi7G5cuXgepPd+7u7kAzf27r+xq5FfYfaprza+wn2ShtXz369OmDwsLCOh8LFixQ87KzszFixAhMmDABJ06cwP/93//h4sWLWLx4MYKDg+1+wr+4uroCAFxcfpJP1S2x/4q3Zs2am55b/eHr62uYT8CBAwfUV++hQ4eq9c31uW3Ia+RW2F5faOavseb7m9XB9s5Tn/s/lpaW4uc//zn27NmD0NBQHD9+HFOnTjX8oWpi+6qk78v5d2D/Dl+f55r+xf4k84cfflgtN8fntqGvkVthe32hmb/GfhKN8sqVK4iNjVX7amw3KMjJyXH4K8n69euRmpoKAHjjjTcQEhKiD6mR7Wd99913KC4u1uMWzf5GELbnjhx39OhRdTCwf//+GDt2rMqa43Pb0NfIrbB/HmwHt5qjn0Sj3LZtG/bu3Ytu3boBdkfHROSmI4L2jh07hpycHKD6KKNNr1697EbVbeTIkWp527Zthqyli4mJQYcOHQAAX3/9teHorb2qqips3bq11vzfUVZWFiZMmICqqip4enrio48+MtwEpjk+tw19jdyKvn37wt/fHwCwdetWPW42mrxRlpSU6KtMrV+/Hnfeeae6c/SkSZPUk/vOO+/UeB1pfn4+xo8fj4MHDwKAYR+P/s5VVVWlGqp+LfXkyZPV0e53330XVVVVhrykpASHDx9W/+3oNbE2ttNFHP20WtM4+99J//1Rw/W3dbG/vrZVq1b49a9/DQA4e/as4VQpe4sWLcIrr7xy03PTkjhat1arFevWrcPAgQNx8eJFtGnTBl988cVNp7HdynPbWH/vhr5GAKCoqEhfVSv738/Dw0PdYvD06dPYtGmT3ch/2rFjh1qu7+vLafQTK2vi6EmZZgoKCmTZsmVqex06dJCtW7fKjh07anxs3bpV3njjDUENVwr87W9/ExcXFwEg48aNk++++05le/bskd69e8vTTz+t1p09e1Zdd9q5c2fZsWOHXL16Vfbs2SP33HOPukQR1VcO2N9s1f5k2V/96lfqpq1nz56Vu+66y3CJ1ZkzZ9Q8R/z6178WVF/fm5qaKlarVb788kvDFUC2y9wAyIIFCwzzRURmzpyp8g8++ECP5auvvlL5L3/5Sz2Wy5cvqzwiIsLwb//xxx9l8ODBAkB8fHxk3bp1UlVVJSIiRUVFMm/ePAkMDJTTp0/bbbF5sP2bbtXVq1dlwYIFantdu3aVf/zjH6pO//73v8uf/vQnefbZZ9Wlh6g+kbyuu5w39LltrL/3rbxGxo4dqzLbpZj2Fi9erHL9pPHr169LdHS0oPpeDbt27RKpvirt/fffN9xf4ZFHHjHMvVW27ZoxH1GPjdVlyZIlajsNedR0Vcy3334rffv2FVTfCKBHjx4SFBQk7dq1k8WLF990Xe3f/vY3adeunWG7np6e8rvf/U5SUlKkY8eOAkB8fX3lscceM8xdt26dBAUFqTmdO3cWDw8PefHFF+Xtt99W2/P29pZXXnnFMLcuFy9eVC+uVq1aiY+Pj4SGhkpqaqosWbJEvL29b3ou2rZtK9u2bZPTp09LYGCgIbNYLBIXF6e2P3PmTFX8tkdQUJDKP/roI3F3dzfkvr6+hhdncXGxzJw5U12v6+/vL7169RI3NzcZNWqUnDt3To1tTmz/nlvhaN16enpK9+7dZdy4cbJw4cKbLkmsTX2e26b4e9f3NXLgwAFDA0X19eB/+tOf1M986KGHDP87BwDyn//5nyoXEcnLy5OHHnpI5Z06dRIvLy/p06ePHDt2TF2/jur7IuTk5BjmN5Rtm2aa7H8u1pjOnTuHM2fO4Pr16wgODsbdd9+tvtLqSkpKsHfvXuTn56NTp04YMmSIGltWVobz58/Dy8sL4eHhN91YuKKiAocOHUJWVhb8/f1x1113oW3btkhLS0NeXh7uuOMOwxUKjiorK8PevXvx/fffo2vXrrj77rvV+XbNSWlpKQ4ePIjc3Fx4eHigX79+jXJunbM097q115ye21t5jdyqrKwsHD9+HGVlZejRowf69esHVO/H7dWrF0JCQpx6FN7RGmkRjZKoJqxbMuNojTT5wRwiop8aNkoiIhNslEREJtgoiYhMsFESEZlgoyQiMsFGSURkgo2SiMgEGyURkQk2SiIiE2yUREQm2CiJiEywURIRmWCjJCIywUZJRGSCjZKIyAQbJRGRCTZKIiITbJRERCbYKImITLBREhGZYKMkIjLBRklEZIKNkojIBBslEZEJNkoiIhNslEREJtgoiYhMsFESEZlgoyQiMmEREdFX6iwWi76KiKjFMGuD/ERJRGSiXp8oHRhK1GywbsmMozXCT5RERCbYKImITLBREhGZYKMkIjLBRklEZOK2N8obN27g8uXLKCoq0qNGcfToURQWFuqriZpMfn4+cnJyUFlZqUemioqKkJmZiWvXrukRNaLb1ii//vprjBgxAq1bt0bXrl3Rtm1bREZGYtGiRbhx44Y+3GFvvPEGYmNja3z069cPgwYNwvXr1/VpRPVSWFiIOXPmYNq0aXpUo/z8fDz33HNo3749goKC0LlzZ/j4+OChhx7CyZMn9eEGJSUlmD9/Prp164a2bdsiPDwcfn5+CAkJwbx581BcXKxPIWcTBwAQB4c65N133xUA4uvrK6tWrZKsrCzZvHmzBAYGCgCJi4uTyspKfZpDBg0apH7fmh7du3fXp1AL5ey6FRHJzMyUuXPnir+/vwCQ+Ph4fchN0tLSJCQkRADItGnTJD09XXJycmTp0qXi5uYmHh4esnHjRn2aiIhkZ2dLVFSUAJCBAwfKnj17JCcnR9avX69eL3369JGCggJ9KjnA0RoxH1GPjTkiISFBbe+bb74xZBs2bFDZJ598Ysgc1b59e5kwYYLs2LGjxsfJkyf1KdRCObNuRUSmT58uFotF3N3d1bbNGmVFRYXExMQIABk/frwey3vvvScAxMvLSy5cuKDHcv/99wsAad++vVy9etWQ7dmzR/0ezz77rCEjxzhaI+Yj6rExR/Tv318ASGxsrB5JVVWVhIaGCgCZPn26Hpu6fv26AJClS5fqEf0bcmbdiojs2LFDcnNzJTU11eFGuWbNGjV2586deiylpaXi6ekpAGTKlCmGrKioSM195ZVXDJmN7dNmQECAHpEDHK2RJt1HeejQIRw/fhwAMGnSJD2Gi4sLli1bhqioKIwbN06PTWVkZAAAevbsqUdEtyw2NhYdOnRAt27d9KhWq1atAgD4+Phg6NChegxPT0+MHDkSALB+/XqUl5errHXr1mjXrh28vb3x5JNP2s36l/DwcADAlStXuO+9ETVpo9y8ebNaHjFihCGziY+Px+nTpzF27Fg9MpWZmQkAiIyM1CMip3F1ddVX1aiyshK7d+8GAERHR9c6r1+/fgCA4uJiHDt2TK13d3dHWloaLl68iJCQELsZ/5KdnQ1Uj/X09NRjcpImbZSJiYkAAA8Pj0ZpZhcuXICbmxvCwsL0iKjJZWRkoLS0FADq/BRqn+lHwAMCAuDv729YZ3P27FmcOHECAPDggw+iVatW+hBykiZtlMnJyQCgGpnVakVCQgIWL16MFStWICEhoUHnltlkZmaie/fu2LJlC+6//3506NAB7dq1Q1RUFGbPno2cnBx9ClGjuXTpklpu3769IbMXFBSklrOysgxZbS5fvoxHHnkEIoLg4GC89957+hByoiZtlLYiCAwMRHp6OgYOHIiJEydi5cqVmD17NkaNGoWoqCgcOXJEn+qQzMxMnD9/Hr/85S/Rr18//P73v8fChQtRVVWFJUuWIDo6usHbJqov+/Mb/fz8DJk9Hx8ftVxSUmLI7J0/fx5r1qzB448/jsjISGRkZOCJJ57AkSNHEBoaqg8nJ2qyRllaWqru+VZeXo4xY8bgiSeeQHZ2NpKTk3H+/HlER0cjLS0NI0eOxJkzZ/RNmLpw4QJCQkKQmJiIBQsWYMKECZg+fToOHz6MLl264OrVq3j44YfrLEYiZ7G/esbNzc2Q2fPw8FDLdV019uc//xlTpkzBn//8Z7i6uuLBBx/EmDFj6vy0Ss7RZI3S/mqbo0ePYvz48ZgxY4bawR0aGoo1a9bAYrGgpKQEzzzzjN1sx3z00UfYtm3bTfso/fz8MHPmTKD6U+2aNWsMOVFjsFqtarmu/Ye1HeTRvfnmm/jxxx9x+vRpvPDCC9i0aRMeeeQRDBw4EOfPn9eHkxM1WaO0LxQXFxe8+OKLhhwA+vbtiyFDhgAAdu3ahYsXL+pD6jRgwABEREToqwEA9957r1revn27ISNqDG3btlXLZWVlhsye/TccX19fQ6azWCyIiorCG2+8gQMHDsDX1xdJSUmIi4vj9d+NqMkapf1+mJCQEAQGBhpyG/tzzQ4fPmzIboX9kUW++1JT8PLyUsu2o981sf+2ZT/HTHR0NF555RUAwMWLF/E///M/+hBykiZrlAAQHBwMmOyv6dSpk1rOy8szZLfC29tbLfPEXGoK9uc+Xr161ZDZ++GHH9Ry165dDZmZhx9+WC0nJCQYMnKeJm2U0dHRQPWdVGpjv1+nPu+uZuy/+rRr186QETWGiIgI9aGgrt1I9lmfPn0MmRn7xurMDxZk1KSN0va1urCwELm5uXoMaOeR1ba/sSZr165Fz549sXXrVj0CtHPaoqKiDBlRY3B1dcWdd94JAHWexXH27FmgerztKh1U76dv27at+npdE/v9krWdmE63rkkb5SOPPKKWt2zZYshs9u7dC1Tv0xwwYIAe12r16tU4d+4c5syZo0cAgP3796tl+wM7RI1pwoQJQPWlhmlpaXoMVDdEAIiLizMczDl48CCKiorwzjvvICUlxW7Gv9iuzAGgDoRSI9DvklETR++w4YgJEyYIAOnXr59UVVUZsqNHj6qf9cILLxgyEZFvv/1WwsLCZNSoUXLt2jVD9vLLL6u5mzdvNmRWq1WGDBkiACQ4OFjKysoMObVMzqxbewUFBWrb9957rx4bFBQUSEBAgACQF198UY9ly5Ytalu7du0yZPv27VPZqFGjxGq1GnIRkYceekhQfZu2ixcv6jGZcLRGzEfUY2OOyMrKkuDgYAEgTz31lJSXl4uISGpqqkRERAgAiY6OluLiYn2qjB49Wv0ua9euNWQFBQVqfkhIiKSnp4uISHl5ucyaNUsAiJubm/zjH/8wzKOWy5l1K9X3lrxy5YqsWLFCbTsgIEASExNveuO2t2nTJnFzcxM3NzfZtGmTWp+WlqZuK/jSSy8Z5tg8++yz6me98MIL6vVSXl4ur7zyigAQFxcX+etf/6pPJQc4WiPmI+qxMUdduHBBhg0bpgotOjpaWrVqJS4uLjJ58mTJz8/Xp4iIyLx581TDS05O1mPJy8uTSZMmiYuLi7i6ukpMTIy6C3S/fv1k//79+hRqwZxdt7Yb8Nb22LBhgz5FSUhIkMjISAEgUVFRMmjQIHF1dRU/Pz9Zvny5PlyxWq2yfPly6dChgwAQf39/GTBggPj5+QkAueOOO+Tbb7/Vp5GDHK0Ri9iuK6yDxWIB/rk1PbolKSkpSExMRFFRETp27Ihhw4bVeTmWiGD79u0ICQlBr1699Fj5/vvvsWfPHuTl5aFt27aIiYnBHXfcoQ+jFq6x6rahrFYrjhw5gjNnzuDGjRsIDw/H8OHDHbo9WkVFBY4ePYrU1FSUlJQgICAAffv25YHJW+RojdzWRknUmFi3ZMbRGmnSo95ERD9FbJRERCbYKImITLBREhGZYKMkIjLBRklEZIKNkojIBBslEZEJNkoiIhNslEREJtgoiYhMsFESEZlgoyQiMsFGSURkgo2SiMgEGyURkQk2SiIiE2yUREQm2CiJiEywURIRmWCjJCIywUZJRGSCjZKIyAQbJRGRCTZKIiITbJRERCbYKImITLBREhGZYKMkIjLBRklEZIKNkojIBBslEZEJNkoiIhNslEREJtgoiYhMsFESEZlgoyQiMsFGSURkwiIioq/UWSwWAIADQxusoqICJSUlcHFxga+vrx7XW0VFBfLz8wEAQUFBcHV11YdQC9dYdVtZWYkffvgBFRUVaN++PVq3bq0PqRXrsnlxtEaazSfK5557Du3atUPfvn31qF727duHsWPHwtfXF8HBwQgODkabNm1w7733YseOHfpwIoft378fDzzwAPz8/NCpUyeEhISgTZs2GDBgAP7whz+gsrJSn6KwLn/ixAEAxMGhDZKUlCStWrUSABIaGqrHDluyZIlYLBZxcXGRhQsXyqVLl+T06dMyadIkASAWi0U+/PBDfRq1UM6s2//93/8Vi8Ui7u7u8tZbb0laWppcvnxZVq1aJZ06dRIAct9990lFRYU+lXXZjDlaI+Yj6rGxhoqNjVU/o6GN8uDBg2KxWASA/O53vzNkVqtV4uLiBIB4eHjI5cuXDTm1TM6q25SUFHFzcxMAsnz5cj2WY8eOqZ+1dOlSQ8a6bN4crZHb/tX7iy++wPHjxxEZGalH9fLXv/4VIgIvLy88++yzhsxiseDJJ58EAJSXl2PDhg2GnKguq1evRkVFBVxcXPCrX/1Kj3HnnXdi8ODBAIC//OUvhox12TLc1kZZVlaGF154ATNnzoSXl5ce10vnzp0BAFOnToWfn58eIzw8XC1nZmYaMqK6pKenAwA8PDzQpk0bPQYAhIWFAQAuXbpkWM+6bBlua6NcsmQJrl+/jtmzZ6OsrEyP6+WFF15Aeno6lixZokcAgOzsbLXctm1bQ0ZUF9tZGD/++CMOHz6sx4BdfQUFBRnWsy5bhtvWKLOzs/HWW2/h9ddfh6+v7y03SovFgm7dusHFpeZ/0rp164DqcfHx8XpMVKsRI0ao5eeffx6lpaWGPD09HQcPHgQAPPHEE4aMddlC6Dsta+LoDs/6mDx5svTo0UMdJQwNDb2lgzm1sVqtsnTpUvVvePXVV/Uh1EI5q27Ly8ulZ8+eanuDBg2Ss2fPiojIxYsXJTo6WgBIfHy8VFZW6tNrxLpsHhytEfMR9diYow4ePCgA5O9//7ta58xGWVFRIVu2bJEFCxZI3759BYD06dNH1q5dqw+lFsyZdXv69GkJDAxU22zVqpXEx8dLmzZtxM/PTxYuXGjaJFmXzY+jNWI+oh4bc4TVapW77rpLYmNjDeud2SiLiorE399f/d4xMTHy+uuvS3p6uj6UWjBn1q2IyOXLl2XkyJFqu7ZHXFycnD9/Xh9+E9Zl8+NojZiPqMfGHPHpp5+KxWKRxMREw3pnNkqboqIi2bhxo9xzzz0CQFxdXWXBggX6MGqhnFm3IiKffPKJdOrUSdzc3KRHjx6GZunl5SVffvmlPqVGrMvmw9EaMR9Rj42ZKS4uls6dO8svf/lLPWqURmljtVplypQp6t+xbNkyfQi1QM6qW6vVKo899pgAkODgYElKShKr1SobNmyQiIgI9XNcXV3l22+/1afXinV5+zlaI+Yj6rExM/PmzRNPT88ar0BozEYpInL9+nW1j8nX11fKysr0IdTCOKtulyxZIqjeL5mUlGTIiouL1dU1ACQsLKxetcW6vL0crZEmu3tQbm4uwsLC4OXlVeONLw4ePIjy8nJ4eHjg7rvvBgCsWrUKXbt21Yc22OTJk7F69Wqg+iYFQ4YM0YdQC+KMuq2oqECHDh1QUFCABx98EF9++aU+BMXFxejduze+++47AMDGjRvrdaoP6/L2cbRGaj65qxHcuHEDEydOxIMPPoiwsLCbHrbbTbm6uqp1+sm7t8q+6ebl5RkyopqcOXMGBQUFAIBBgwbpMQDAx8cHzzzzjPrv5ORkQ26Gddn8NVmjDAkJwSeffFLrIzAwEAAQGBio1nl4eOibqdW4ceMQEhKCixcv6pFy7do1tezv72/IiGrSqlUrfVWNQkND1bJ93bIuW4Yma5SOqqqq0lc55JtvvkFWVhZeeeUVPVJOnDgBAHB3d8eAAQP0mOgm4eHh6sa8J0+e1GMlKytLLQ8cOFAtsy5bCH2nZU0c3eF5K2wHc/z8/PRI+fbbbyUsLExGjRol165dM2T33nuv+j137dplyKT6npe2/Nlnn9VjaoGcVbeTJ08WAOLu7i4XLlzQY7lx44b07t1bAEjv3r0NJ56zLps3R2vEfEQ9NtYQxcXFsnv3bnXjXgCyY8cOKS0t1YfK6NGj1Rj9aoazZ8+qo4e2UzhskpKSpHv37gJABg8eLCUlJYa51DI5q25zc3NV/fTu3dtQW/n5+TJhwgQBIJ6enrJv3z7DXNZl8+ZojZiPqMfG6isjI0NtW3/UdJrQvHnzBIC4ublJcnKyHktaWpqMHTtWLBaLWCwWueOOO9Q1uu7u7vLss8+yGP+NOLNu8/Ly5Fe/+pW4u7sLAImMjJR+/fqpG/qOGjVKTp06pU8TYV02a47WSJOdHuQMIoLt27cjJCQEvXr10mMlOzsbBw4cQF5eHtzd3dG1a1cMGTIE3t7e+lBqwRqjbgsKCnDgwAF89913sFqtaN++Pe666y4EBwfrQ2/Cumx+HK2Rn1SjJKoP1i2ZcbRGmt1RbyKi5oaNkojIBBslEZEJNkoiIhNslEREJtgoiYhMsFESEZlgoyQiMsFGSURkgo2SiMgEGyURkQk2SiIiE2yUREQm2CiJiEywURIRmWCjJCIywUZJRGSCjZKIyAQbJRGRCTZKIiITbJRERCbYKImITLBREhGZYKMkIjLBRklEZIKNkojIBBslEZEJNkoiIhNslEREJtgoiYhMsFESEZlgoyQiMsFGSURkgo2SiMgEGyURkQk2SiIiE7e9Ud64cQOXL19GUVGRHt2Sqqoq5ObmIj8/X4+IftKuXr2K7OxsVFRU6BE1ktvWKL/++muMGDECrVu3RteuXdG2bVtERkZi0aJFuHHjhj7cYceOHUN8fDy8vb3RqVMnBAUFISgoCHPmzHF6M6Z/X4WFhZgzZw6mTZumR6YaMregoACzZ89GUFAQAgICEBwcDD8/P4wfPx4nTpzQh5OziQMAiINDHfLuu+8KAPH19ZVVq1ZJVlaWbN68WQIDAwWAxMXFSWVlpT7N1KpVq8TFxUUAyIwZMyQlJUVOnTol48ePFwASGRkpOTk5+jRqoZxdtyIimZmZMnfuXPH39xcAEh8frw+pVUPnZmdnS0REhACQ8ePHy6lTpyQ1NVWeeOIJASBubm6yfft2fRo5wNEaMR9Rj405IiEhQW3vm2++MWQbNmxQ2SeffGLIzCQlJYm7u7sAkKlTpxqyyspKGT58uACQ0aNHGzJquZxZtyIi06dPF4vFouqsPs2uoXOtVqvExsYKABkxYoThA0RVVZX0799fAEh4eLhYrVbDXDLnaI2Yj6jHxhxh+8PGxsbqkVRVVUloaKgAkOnTp+txnSZOnKh+z4sXL+qx7Nq1S+Xbtm3TY2qBnFm3IiI7duyQ3NxcSU1NrVezk1uY++WXX6rxO3fu1GP56KOPVM5vS/XnaI2Yj6jHxswcPHhQbevDDz/UYxER2bhxo0RFRcnmzZv1qFaVlZXSpk0bASC9evXSY5Hqd+b27dsLAPmv//ovPaYWyFl1q6uoqKhXs7NX37n33XefAJDg4GA9EhGRsrIyefDBB+X++++XqqoqPSYTjtZIkx7M2bx5s1oeMWKEIbOJj4/H6dOnMXbsWD2qVWZmJkpKSgAA3bt312MAgMViwaBBgwAAW7du1WMih7m6uuqrHFafuaWlpUhISADqeL14eHjgyy+/xFdffQUXlyZ9Of9badJnNjExEaj+40ZGRupxgxUXF6tlf39/Q2avc+fOAICioiJkZmbqMVGzcvr0aXUGSJ8+ffSYmlCTNsrk5GQAQFhYGADAarUiISEBixcvxooVK5CQkIDKykptljkfHx+1nJeXZ8js2b/jZmRkGDKi5sb2eoHdayYnJwcff/wxFi1ahE8//RSXL1+2m0GNpUkbZVZWFgAgMDAQ6enpGDhwICZOnIiVK1di9uzZGDVqFKKionDkyBF9ap1CQ0NVs0xKSsI/dz3c7Ny5c2qZ51RSc2d7vaD6NbNw4UJERETgvffew/vvv4/HHnsMYWFhmDVrVoM+YJDjmqxRlpaWqgZWXl6OMWPG4IknnkB2djaSk5Nx/vx5REdHIy0tDSNHjsSZM2f0TdTK1dUV48aNAwDk5uZiz549+hCkpKRg9+7d6r/tv64TNUfXr19Xyx9//DHWr1+PU6dO4cyZM/juu+/w/vvvo6qqCkuXLsWTTz5pmEtOph/dqYmjR4bqUlBQoLYDQObMmaMPkaSkJLFYLILqc8bq49y5c+Lt7S0ApF+/fnLt2jWVXblyRfr37y933nmn+vkbNmwwzKeWxxl1Wxvbth05cq1zdO7zzz+vxvr6+kp2drY+RB5++GE1ZseOHXpMJhytkSb7RNmqVSu17OLighdffNGQA0Dfvn0xZMgQAMCuXbtw8eJFfUitIiMj8fnnn8PHxwcnTpxAVFQUZs2aheeeew5RUVEYPny4+tQJAN7e3ob5RM2N/Wvm8ccfR6dOnQw5ADz11FNq+c9//rMhI+dpskZpf8AlJCQEgYGBhtxm6NChavnw4cOGzMzo0aNx7tw5zJ8/H3379sXx48dRWFiI1atXY9myZSgrK1Nj27dvb5hL1NzYv2buvPNOQ2bzs5/9DBaLBWjA64Uc12SNEgCCg4MBAG5ubnqk2L9r1nUEuzYdO3bEa6+9hq+++go7d+7Ep59+iri4OKD6fEtUn1PZs2dPbSZR89KlSxe1XNtrpk2bNvD19QUa+HohxzRpo4yOjgaAOm99ZrVa1bKXl5chu1Xp6ekAgB49eqB169Z6TNSs2F4vcPA14+zXC/1LkzZK29fqwsJC5Obm6jGgnRIRERFhyOqyf/9+zJgxo9YTya9fv47jx48DAB544AE9Jmp2YmJi0KZNGwDA2bNn9RioPs3NdgZHfV4vVD9N2igfeeQRtbxlyxZDZrN3716gev/MgAED9LhW77zzDj744AM888wzegRUXz5ZVVUFaL8HUXPl6emJBx98EKi+7Lam84NtrxcAGDlypCEj52nSRtmzZ09MmDABALB8+XLD12xU33T36NGjAIAnn3zypq8SCQkJCA8PR1xc3E3nQXbr1g2obsCpqamGzGq1YunSpUD1AZ/BgwcbcqL6KCwsVMulpaWGzEx9586dOxcWiwUXL17Exo0b9Rj/+7//C1Tvq5w6daoek7Po5wvVxNFzjRyRlZUlwcHBAkCeeuopKS8vFxGR1NRUdXPS6OhoKS4u1qfK6NGj1e+ydu1aQ3b58mV1499hw4bJ1atXRUSktLRUnn76aUH1HVhqugUbtUzOrFupvvPPlStXZMWKFWrbAQEBkpiYaDhvtya3Mvf1118XABIYGCjHjh0Tqd7e/Pnz1bZWrlypTyMHOFoj5iPqsTFHXbhwQYYNG6aKJTo6Wlq1aiUuLi4yefJkyc/P16eIiMi8efME1Xd0Tk5O1mM5e/asusmpl5eX9O/fX9q1aycAZNSoUZKRkaFPoRbM2XUbExOjtlnTo66LGG5lrojI+++/L97e3mKxWOSOO+6QoKAgASChoaHy2Wef6cPJQbbn34xFatrxobGdp+XA0HpJSUlBYmIiioqK0LFjRwwbNqzO8xtFBNu3b0dISAh69eqlx0p6ejoOHz6MgoICBAQEYPDgwQgPD9eHUQvXWHV7u/z444/YuXMnLl68iDZt2iAyMhKDBw/m7dVugaM1clsbJVFjYt2SGUdrhG9FREQm2CiJiEywURIRmWCjJCIywUZJRGSCjZKIyAQbJRGRCTZKIiITbJRERCbYKImITLBREhGZYKMkIjLBRklEZIKNkojIBBslEZEJNkoiIhNslEREJtgoiYhMsFESEZlgoyQiMsFGSURkgo2SiMgEGyURkQk2SiIiE2yUREQm2CiJiEywURIRmWCjJCIywUZJRGSCjZKIyAQbJRGRCTZKIiITbJRERCbYKImITLBREhGZYKMkIjLBRklEZIKNkojIxG1vlDdu3MDly5dRVFSkR7csPz8fOTk5qKys1COiBquqqkJubi7y8/P1iFooi4iIvlJnsVgAAA4MddjXX3+Nd955B3v27FHbjYiIwJNPPonnn38e7u7u+hSH5Ofn480338S6devwww8/AABat26NMWPG4I033kDfvn31KdRCObtujx07hvnz5+Mf//gHysrKAADt27fHY489hldffRV+fn76FBQVFSE+Pl5fXavp06fjF7/4hb6aGonDNSIOACAODnXIu+++KwDE19dXVq1aJVlZWbJ582YJDAwUABIXFyeVlZX6NFNpaWkSEhIiAGTatGmSnp4uOTk5snTpUnFzcxMPDw/ZuHGjPo1aKGfW7apVq8TFxUUAyIwZMyQlJUVOnTol48ePFwASGRkpOTk5+jTZtWuX+j3MHu7u7nLq1Cl9E9SIHK0R8xH12JgjEhIS1Pa++eYbQ7ZhwwaVffLJJ4bMTEVFhcTExAgAGT9+vB7Le++9JwDEy8tLLly4oMfUAjmrbpOSksTd3V0AyNSpUw1ZZWWlDB8+XADI6NGjDZmIyOLFiwWA/OY3v5HNmzfLjh07bnrMnDlTAMibb76pT6dG5miNmI+ox8Yc0b9/fwEgsbGxeiRVVVUSGhoqAGT69Ol6XKc1a9ao33Pnzp16LKWlpeLp6SkAZMqUKXpMLZCz6nbixIlqWxcvXtRjw6fGbdu2GbJJkybJiBEjDOvs5eXlSWBgoISFhUl5ebkeUyNztEaa9GDOoUOHcPz4cQDApEmT9BguLi5YtmwZoqKiMG7cOD2u06pVqwAAPj4+GDp0qB7D09MTI0eOBACsX78e5eXl+hCim1RVVWHTpk0AgF69eiEkJEQfguHDh6N9+/YAgI8//tiQeXp64sknnzSsszdr1iz88MMPWLBgQYP3y1MT0DtnTRztumZeffVVta1z587pcYNVVFSIl5eXAJCf/exneqzMmzdP/fx9+/bpMbUwzqjb8+fPq+2MHTtWj5X7779fAIifn58e1Wrfvn0CQHr37i1Wq1WPqQk4WiNN+okyMTERAODh4YHIyEg9brCMjAyUlpYCALp166bHin128uRJQ0ZUk+LiYrXs7+9vyOx17twZqD7KnZmZqcc1mj17NgDg+eefV0dfqXlq0kaZnJwMAAgLCwMAWK1WJCQkYPHixVixYgUSEhIadM7jpUuX1LLtK1BNgoKC1HJWVpYhI6qJj4+PWs7LyzNk9lxc/vVSysjIMGQ12bp1Kw4dOgR/f39MnjxZj6mZadJGaWtOgYGBSE9Px8CBAzFx4kSsXLkSs2fPxqhRoxAVFYUjR47oU+tk/65f07lsNvZFX1JSYsiIahIaGqrqJikpCbWdb3fu3Dm17MjFE/PnzwcAPProo/Dy8tJjamaarFGWlpaqIisvL8eYMWPwxBNPIDs7G8nJyTh//jyio6ORlpaGkSNH4syZM/omanXt2jW17ObmZsjseXh4qOXCwkJDRlQTV1dXdWAxNzcXe/bs0YcgJSUFu3fvVv9t/8ZdkyNHjuDAgQMAgIceekiPqRlqskZ548YNtXz06FGMHz8eM2bMgKurK1D9zr1mzRpYLBaUlJTgmWeesZtdN6vVqpZbtWplyOzZfhZRfbzxxhvw9vYGqvcn2jfCq1ev4tFHH0W/fv3UOvtvLjX54IMPgOrdRPfcc48eUzPUZI3SvoG5uLjgxRdfNOQA0LdvXwwZMgQAsGvXLly8eFEfUqO2bduqZdulZTWx/7rt6+tryIhqExkZic8//xw+Pj44ceIEoqKiMGvWLDz33HOIiorC8OHDDaez2ZpqTa5fv47169cDAOLj4+t8Y6fmo8kapf27bEhICAIDAw25jf05kIcPHzZktbHfx2M7+l0T+0+13C9E9TF69GicO3cO8+fPR9++fXH8+HEUFhZi9erVWLZsmeENuq4Dips3b1Zj7733Xj2mZqrJGiUABAcHAyb7ETt16qSW6zrKaM/+JOCrV68aMnu2m2QAQNeuXQ0ZkZmOHTvitddew1dffYWdO3fi008/RVxcHACoU4IsFgt69uypzfyXzz77TC3HxsYaMmq+mrRRRkdHA9V3+KmN/f5GRz/1RUREqOZb19d1+6xPnz6GjOhWpKenAwB69OiB1q1b6zFQXds7duwAqt+o7U9Xo+atSRul7Wt1YWEhcnNz9RjQzm+MiIgwZLVxdXXFnXfeCQB1Hi0/e/YsUD3efuc7UV3279+PGTNm1Hoi+fXr19WluQ888IAeK8nJyeobz4ABA/SYmrEmbZSPPPKIWt6yZYshs9m7dy9QvU+zPsU0YcIEAEB2djbS0tL0GKg+QAQAcXFxPJhDDnvnnXfwwQcf1HomxubNm1FVVQVoNa47ceKEWu7evbsho+atSRtlz549VUNbvny54Ws2qm+MevToUQDAk08+edNX74SEBISHhyMuLu6mc9WmTp2KgIAAAMCf/vQnQ4bqKyFsV/DMnTtXj4lqZbv0dcuWLUhNTTVkVqsVS5cuBaoP+AwePNiQ27P/tmO7Oo1+IvSLv2vi6IXjjsjKypLg4GABIE899ZS6tVRqaqpEREQIAImOjpbi4mJ9qowePVr9LmvXrtVj2bRpk7i5uYmbm5ts2rRJrU9LS1O3b3vppZcMc6jlclbdXr58Wd1UetiwYXL16lWR6lv3Pf300wJAgoODa7wFm71f/OIX6ndav369HtNt4GiNmI+ox8YcdeHCBRk2bJgAkICAAImOjpZWrVqJi4uLTJ48WfLz8/UpInZ3/3Fzc5Pk5GQ9Fqm+MXBkZKQAkKioKBk0aJC4urqKn5+fLF++XB9OLZgz6/bs2bMSGxsrqL75c//+/aVdu3YCQEaNGiUZGRn6lJvcd9996nfasmWLHtNt4GiN3Lb/Zw6qL/1KTExEUVEROnbsiGHDhtV5DpqIYPv27QgJCUGvXr30WLFarThy5AjOnDmDGzduIDw8HMOHD4enp6c+lFqwxqjb9PR0HD58GAUFBQgICMDgwYMRHh6uD6vR3r171Slqw4YNq/VcYmo6jtbIbW2URI2JdUtmHK2RJj2YQ0T0U8RGSURkgo2SiMgEGyURkQk2SiIiE2yUREQm2CiJiEywURIRmWCjJCIywUZJRGSCjZKIyAQbJRGRCTZKIiITbJRERCbYKImITLBREhGZYKMkIjLBRklEZIKNkojIBBslEZEJNkoiIhNslEREJtgoiYhMsFESEZlgoyQiMsFGSURkgo2SiMgEGyURkQk2SiIiE2yUREQm2CiJiEywURIRmWCjJCIywUZJRGSCjZKIyAQbJRGRCTZKIiITbJRERCZue6O8ceMGLl++jKKiIj26JVVVVcjNzUV+fr4eEf1klZSUIDMzE1evXtUjakS3rVF+/fXXGDFiBFq3bo2uXbuibdu2iIyMxKJFi3Djxg19uMOOHTuG+Ph4eHt7o1OnTggKCkJQUBDmzJnj9GZM/74KCwsxZ84cTJs2TY9M1XduaWkp3n77bfTq1Qve3t4IDw9HQEAAgoKC8NRTTyE7O1ufQs4mDgAgDg51yLvvvisAxNfXV1atWiVZWVmyefNmCQwMFAASFxcnlZWV+jRTq1atEhcXFwEgM2bMkJSUFDl16pSMHz9eAEhkZKTk5OTo06iFcnbdiohkZmbK3Llzxd/fXwBIfHy8PqRWDZl79epV6d+/vwCQu+++W3bv3i25ubmyd+9eGT58uACQwMBAOXXqlD6VHOBojZiPqMfGHJGQkKC298033xiyDRs2qOyTTz4xZGaSkpLE3d1dAMjUqVMNWWVlpSqq0aNHGzJquZxZtyIi06dPF4vFourM0WYntzB36tSpAkCCgoKkoKDAkF27dk06duwoACQ6OlqsVqshJ3OO1oj5iHpszBG2d8fY2Fg9kqqqKgkNDRUAMn36dD2u08SJE9XvefHiRT2WXbt2qXzbtm16TC2QM+tWRGTHjh2Sm5srqamp9Wp2cgtzvb29BYDMnj1bj0RE5Omnn1bbO3TokB6TCUdrpEn3UR46dAjHjx8HAEyaNEmP4eLigmXLliEqKgrjxo3T41pVVVVh06ZNAIBevXohJCREH4Lhw4ejffv2AICPP/5Yj4lMxcbGokOHDujWrZsemWro3Hbt2sHFxQWTJ0/WIwBAly5d1HJKSoohI+dp0ka5efNmtTxixAhDZhMfH4/Tp09j7NixelSrzMxMlJSUAAC6d++uxwAAi8WCQYMGAQC2bt2qx0QOc3V11Vc5rL5zDx8+jHPnzqFfv356BAAoKChQy25uboaMnKdJG2ViYiIAwMPDA5GRkXrcYMXFxWrZ39/fkNnr3LkzAKCoqAiZmZl6TNTsdOzYsdY3fwDYvn07AKBVq1YYPny4HpOTNGmjTE5OBgCEhYUBAKxWKxISErB48WKsWLECCQkJqKys1GaZ8/HxUct5eXmGzJ6Ly7/+uRkZGYaM6KdmzZo1SEpKAgA8+uijhq/h5FxN2iizsrIAAIGBgUhPT8fAgQMxceJErFy5ErNnz8aoUaMQFRWFI0eO6FPrFBoaqpplUlIS/rmP9mbnzp1Tyzynkn7Kvv32W3UeZteuXbFkyRJ9CDlRkzXK0tJS1cDKy8sxZswYPPHEE8jOzkZycjLOnz+P6OhopKWlYeTIkThz5oy+iVq5urqqgz+5ubnYs2ePPgQpKSnYvXu3+m/7r+tEPyXr16/HmDFj8OOPPyIwMBBff/01AgIC9GHkRE3WKO2vtjl69CjGjx+PGTNmqJ3boaGhWLNmDSwWC0pKSvDMM8/YzTb3xhtvwNvbGwDw/PPPGxrh1atX8eijjxp2iNt/XSf6qVi8eDH+67/+CxUVFejduzcOHz6M6OhofRg5WZM1ylatWqllFxcXvPjii4YcAPr27YshQ4YAAHbt2oWLFy/qQ2oVGRmJzz//HD4+Pjhx4gSioqIwa9YsPPfcc4iKisLw4cMNpxzZmirRT8V7772H3/zmNwCAMWPG4MCBAwgPD9eHUSNoskZp/wkuJCQEgYGBhtxm6NChavnw4cOGzMzo0aNx7tw5zJ8/H3379sXx48dRWFiI1atXY9myZSgrK1NjbedUEv0UfP7555gzZw4A4De/+Q02bdoEPz8/fRg1kiZrlAAQHBwMmJzv1alTJ7Vc1xHs2nTs2BGvvfYavvrqK+zcuROffvop4uLigOrzLVF9TmXPnj21mUTNU3Z2NqZOnQoAePvtt7Fo0SLDNzRqfE3aKG37Uuq69ZnValXLXl5ehuxWpaenAwB69OiB1q1b6zFRs/T666+jsLAQc+fOxcsvv6zH1ASatFHavlYXFhYiNzdXjwG7U4gAICIiwpDVZf/+/ZgxY0atJ5Jfv35dXT75wAMP6DFRs3Tp0iWsXLkSgwYNwptvvqnHyqZNm7B37159NTlJkzbKRx55RC1v2bLFkNnY/tg+Pj4YMGCAHtfqnXfewQcffFDr0fLNmzejqqoK0H4PoubsD3/4A6qqqvDOO+/U+XX7xRdfxNGjR/XV5CRN2ih79uyJCRMmAACWL19u+JqN6pvu2v7YTz755E1fvRMSEhAeHo64uLibzoO03Wxgy5YtSE1NNWRWqxVLly4Fqg/4DB482JAT1UdhYaFaLi0tNWRm6jt3/fr1iIyMxMiRI/UIAFBWVob/+Z//QUpKCmJiYvSYnEW/nVBNHL0VkSOysrIkODhYAMhTTz0l5eXlIiKSmpoqERERgup76xUXF+tTZfTo0ep3Wbt2rSG7fPmyuvHvsGHD5OrVqyIiUlpaqm5FFRwcXOMt2KhlcmbdiohUVFTIlStXZMWKFWrbAQEBkpiYKNeuXdOHGzRkbkpKihrryCM/P1/fBJmwPXdmzEfUY2OOunDhggwbNkwVS3R0tLRq1UpcXFxk8uTJtf7B582bJwDEzc1NkpOT9VjOnj0rsbGxAkC8vLykf//+0q5dOwEgo0aNkoyMDH0KtWDOrtuYmJibmpP9Y8OGDfoUpSFzN2/efNO42h6dOnXSp5MDbM+fGYvUdmG0HYvFAvxza3p0S1JSUpCYmIiioiJ07NgRw4YNq/P8RhHB9u3bERISgl69eumxkp6ejsOHD6OgoAABAQEYPHgwT8z9N9RYdUsth6M1clsbJVFjYt2SGUdrpEkP5hAR/RSxURIRmWCjJCIywUZJRGSCjZKIyAQbJRGRCTZKIiITbJRERCbYKImITLBREhGZYKMkIjLBRklEZIKNkojIBBslEZEJNkoiIhNslEREJtgoiYhMsFESEZlgoyQiMsFGSURkgo2SiMgEGyURkQk2SiIiE2yUREQm2CiJiEywURIRmWCjJCIywUZJRGSCjZKIyAQbJRGRCTZKIiITbJRERCbYKImITLBREhGZYKMkIjLBRklEZIKNkojIBBslEZGJ294ob9y4gcuXL6OoqEiPbklVVRVyc3ORn5+vR0S3VX5+PnJyclBZWalH9VJcXIzCwkLcuHFDj8jJbluj/PrrrzFixAi0bt0aXbt2Rdu2bREZGYlFixbd0h/+2LFjiI+Ph7e3Nzp16oSgoCAEBQVhzpw5Tm/G9O+rsLAQc+bMwbRp0/SoRvn5+XjuuefQvn17BAUFoXPnzvDx8cFDDz2EkydP6sNNZWZmIigoCO3atcPatWv1mJxNHABAHBzqkHfffVcAiK+vr6xatUqysrJk8+bNEhgYKAAkLi5OKisr9WmmVq1aJS4uLgJAZsyYISkpKXLq1CkZP368AJDIyEjJycnRp1EL5ey6FRHJzMyUuXPnir+/vwCQ+Ph4fchN0tLSJCQkRADItGnTJD09XXJycmTp0qXi5uYmHh4esnHjRn1anf7f//t/6t+3cuVKPSYHOVoj5iPqsTFHJCQkqO198803hmzDhg0q++STTwyZmaSkJHF3dxcAMnXqVENWWVkpw4cPFwAyevRoQ0YtlzPrVkRk+vTpYrFYVJ3BgUZZUVEhMTExAkDGjx+vx/Lee+8JAPHy8pILFy7ocY127typfj7YKG+JozViPqIeG3NE//79BYDExsbqkVRVVUloaKgAkOnTp+txnSZOnKh+z4sXL+qx7Nq1S+Xbtm3TY2qBnFm3IiI7duyQ3NxcSU1NVds2a5Rr1qxRY3fu3KnHUlpaKp6engJApkyZosc3qaqqkpiYGBk0aJDaLhtlwzlaI026j/LQoUM4fvw4AGDSpEl6DBcXFyxbtgxRUVEYN26cHteqqqoKmzZtAgD06tULISEh+hAMHz4c7du3BwB8/PHHekxkKjY2Fh06dEC3bt30qFarVq0CAPj4+GDo0KF6DE9PT4wcORIAsH79epSXl+tDDD788ENkZmbimWee0SNqRE3aKDdv3qyWR4wYYchs4uPjcfr0aYwdO1aPapWZmYmSkhIAQPfu3fUYAGCxWDBo0CAAwNatW/WYyGGurq76qhpVVlZi9+7dAIDo6Oha5/Xr1w+oPop97NgxPVaKiorw2muv4aWXXkLr1q31mBpRkzbKxMREAICHhwciIyP1uMGKi4vVsr+/vyGz17lzZ6C64DIzM/WYyKkyMjJQWloKAHV+CrXP6joC/tvf/hYeHh6YOXMmysrK9JgaUZM2yuTkZABAWFgYAMBqtSIhIQGLFy/GihUrkJCQ0KBzy3x8fNRyXl6eIbPn4vKvf25GRoYhI3K2S5cuqWXbbp+aBAUFqeWsrCxDZpOamooVK1ZgwYIF8PT01GNqZE3aKG1FEBgYiPT0dAwcOBATJ07EypUrMXv2bIwaNQpRUVE4cuSIPrVOoaGhqlkmJSXhn/tob3bu3Dm1zHMqqbHZf9Px8/MzZPbs3+htu5B0s2bNQkxMDP77v/9bj6gJNFmjLC0tVQ2svLwcY8aMwRNPPIHs7GwkJyfj/PnziI6ORlpaGkaOHIkzZ87om6iVq6urOviTm5uLPXv26EOQkpKi9hdBK2KixnDt2jW17ObmZsjseXh4qOXCwkJDBgBbtmzBli1bsHjxYlgsFj2mJtBkjdL+apujR49i/PjxmDFjhtrBHRoaijVr1sBisaCkpKTeR/XeeOMNeHt7AwCef/55QyO8evUqHn30UbXTHNq7OFFjsFqtarlVq1aGzF5tB3kAoKKiArNmzcL48eNrPQBKja/JGqV9obi4uODFF1805ADQt29fDBkyBACwa9cuXLx4UR9Sq8jISHz++efw8fHBiRMnEBUVhVmzZuG5555DVFQUhg8fbjjlyNZUiRpL27Zt1XJdB1/sv277+voasg8++ADp6el45513DOupaTVZo7T/BBcSEoLAwEBDbmN/rtnhw4cNmZnRo0fj3LlzmD9/Pvr27Yvjx4+jsLAQq1evxrJlywzFWtfOdSJn8PLyUsu2o981sf+2ZT8nPz8fv/3tb/HMM8+gR48eaj01vSZrlAAQHBwMmOyv6dSpk1qu6wh2bTp27IjXXnsNX331FXbu3IlPP/0UcXFxQPX5lqg+p7Jnz57aTCLnsr/w4erVq4bM3g8//KCWu3btqpbfeustFBUVYc+ePYiNjTU8Fi5cqMYtXLgQsbGxePPNN9U6cq4mbZTR0dFA9Ttlbez369i/uzpDeno6AKBHjx48YZcaXUREhPpQUNduJPusT58+arlbt2547LHH0LdvX4SFhRke9t/IAgMDERYWxk+djUm/prEmjl4PaWb+/PlqW7XdxWfmzJlqzO7du/W4Vvv27ZNnn31WMjIy9EhERIqLi6VVq1YCQF544QU9phbIWXVbE9u2za71vuuuuwSAdO7cWY+UyZMnCwBxdXWVoqIiPa7RypUr1e/Aa70bztEaadJPlI888oha3rJliyGz2bt3L1C9T3PAgAF6XKt33nkHH3zwQa1Hyzdv3oyqqipA+z2IGtOECRMAANnZ2UhLS9NjoPrAJQDExcXddDDHEba6psbTpI2yZ8+eqnCWL19u+JqN6pvuHj16FADw5JNP3vTVOyEhAeHh4YiLi7vpPEjbZWBbtmxBamqqIbNarVi6dClQfcBn8ODBhpyoPuzPdazrIA0ATJ06FQEBAQCAP/3pT3qMrVu3qit45s6dq8cO0V8L1Aj0j5g1cfTjqSOysrIkODhYAMhTTz0l5eXlIiKSmpoqERERAkCio6OluLhYnyqjR49Wv8vatWsN2eXLl9WNf4cNGyZXr14Vqb6N1dNPPy0AJDg4uMZbsFHL5My6lep7S165ckVWrFihth0QECCJiYly7do1fbiyadMmcXNzEzc3N9m0aZNan5aWpm4r+NJLLxnm1KaiokK+//57mTBhgvodHnjgAcnLyxOr1aoPJxOO1oj5iHpszFEXLlyQYcOGqUKLjo6WVq1aiYuLi0yePFny8/P1KSIiMm/ePAEgbm5ukpycrMdy9uxZiY2NFVTfCLV///7Srl07ASCjRo2qdf8ltUzOrlvbDXhre2zYsEGfoiQkJEhkZKQAkKioKBk0aJC4urqKn5+fLF++XB9eq8cee+ymn2t7cF9l/TlaIxap7cJoO7bLphwYWi8pKSlITExEUVEROnbsiGHDhtV5fqOIYPv27QgJCUGvXr30WElPT8fhw4dRUFCAgIAADB48GOHh4fowauEaq24bymq14siRIzhz5gxu3LiB8PBwDB8+nDe5uI0crZHb2iiJGhPrlsw4WiNNejCHiOiniI2SiMgEGyURkQk2SiIiE2yUREQm2CiJiEywURIRmWCjJCIywUZJRGSCjZKIyAQbJRGRCTZKIiITbJRERCbYKImITLBREhGZYKMkIjLBRklEZIKNkojIBBslEZEJNkoiIhNslEREJtgoiYhMsFESEZlgoyQiMsFGSURkgo2SiMgEGyURkQk2SiIiE2yUREQm2CiJiEywURIRmWCjJCIywUZJRGSCjZKIyAQbJRGRCTZKIiITbJRERCaaZaM8evQoCgsL9dX1UllZidzcXGRlZaGsrEyPiW6b/Px85OTkoLKyUo8ccvXqVWRnZ6OiokKPqJHclkb5xhtvIDY2tsZHv379MGjQIFy/fl2f5pD9+/fjgQcegJ+fHzp16oSQkBC0adMGAwYMwB/+8IcGFyeRvcLCQsyZMwfTpk3Toxrl5+fjueeeQ/v27REUFITOnTvDx8cHDz30EE6ePKkPv0lBQQFmz56NoKAgBAQEIDg4GH5+fhg/fjxOnDihDydnEwcAEAeHOmTQoEFqmzU9unfvrk9xyP/+7/+KxWIRd3d3eeuttyQtLU0uX74sq1atkk6dOgkAue+++6SiokKfSi2Qs+tWRCQzM1Pmzp0r/v7+AkDi4+P1ITdJS0uTkJAQASDTpk2T9PR0ycnJkaVLl4qbm5t4eHjIxo0b9WlKdna2RERECAAZP368nDp1SlJTU+WJJ54QAOLm5ibbt2/Xp5EDHK0R8xH12Jij2rdvLxMmTJAdO3bU+Dh58qQ+xVRKSoq4ubkJAFm+fLkey7Fjx9S/Y+nSpXpMLZCz63b69Onqjdi2bbNGWVFRITExMarJ6d577z0BIF5eXnLhwgU9FqvVKrGxsQJARowYIZWVlSqrqqqS/v37CwAJDw8Xq9VqmEvmHK0R8xH12Jgjrl+/3ijN6tVXXxUA4uLiItevX9djEREZPHiwAJC7775bj6gFcmbdiojs2LFDcnNzJTU11eFGuWbNGjV2586deiylpaXi6ekpAGTKlCl6LF9++WWd8z/66COV5+Tk6DGZcLRGmnwfZUZGBgCgZ8+eenRL0tPTAQAeHh5o06aNHgMAwsLCAACXLl3SIyJTsbGx6NChA7p166ZHtVq1ahUAwMfHB0OHDtVjeHp6YuTIkQCA9evXo7y83JD/4Q9/AAAEBwdjxIgRhgwAJk2ahAcffBD3338/goKC9JicpMkbZWZmJgAgMjJSj26Jr68vAODHH3/E4cOH9RgAkJ2dDQAsKLolrq6u+qoaVVZWYvfu3QCA6OjoWuf169cPAFBcXIxjx46p9aWlpUhISACAGpskqj8YfPnll/jqq6/g4tLkL+d/G03+zF64cAFubm7q052z2BfS888/j9LSUkOenp6OgwcPAgCeeOIJQ0bUGDIyMlQd1vUp1D6zPwJ++vRp3LhxAwDQp08ftZ6aXpM3yszMTHTv3h1btmzB/fffjw4dOqBdu3aIiorC7NmzkZOTo09xyMMPP6y+zh88eBCxsbFISUkBqr9qjx8/HpWVlYiPj8evf/1rbTaR89nv4mnfvr0hs2f/DScrK0stJycnq2XbB4ucnBx8/PHHWLRoET799FNcvnxZjaHGc1sa5fnz5/HLX/4S/fr1w+9//3ssXLgQVVVVWLJkCaKjo3HkyBF9mil3d3d88cUXCAwMBAAcOXIE0dHRGD9+PKKiopCVlYWFCxfi888/R6tWrfTpRE5XXFyslv38/AyZPR8fH7VcUlKilu2bZmBgIBYuXIiIiAi89957eP/99/HYY48hLCwMs2bN4vnBjazJG+WFCxcQEhKCxMRELFiwABMmTMD06dNx+PBhdOnSBVevXsXDDz9sKBhHRUVF4cSJE2rneFVVFb788kuUlJRg0KBBmDBhApskNZlr166pZTc3N0Nmz8PDQy3bX5Fmf9HFxx9/jPXr1+PUqVM4c+YMvvvuO7z//vuoqqrC0qVL8eSTT6qx5HxN3ig/+ugjbNu27aZ9lH5+fpg5cyZQ/U66Zs0aQ+6ob775BikpKXBzc0OPHj0M6/v27Yu///3vhvFEjcVqtarlut6gazvIY9s/CQBfffUVvvrqK7U/08XFBbNmzcLDDz8MAFi5ciV27typxpNzNXmjHDBgACIiIvTVAIB7771XLW/fvt2QmRERPP7443j88cfh4uKCo0ePIiUlBRs2bFA/r7S0FA8//LA6kkjUmNq2bauW67rfgP23J9vZG9Ca6+OPP45OnTqp/7Z56qmn1PKf//xnQ0bO0+SNsi72R//Onz9vyMwsW7YMf/7zn9GqVSt8/fXX6Nu3LywWC8aPH4/jx48jLi4OqD5lY8qUKTedr0bkbF5eXmpZPwvDnv0nR/s59vsu77zzTrVs72c/+xksFgsA1HpaHN26ZtUovb291XJ9bopRUVGB+fPnAwDGjh2Lvn37GnJvb2988cUXCA4OBqoPKG3dutUwhsjZQkJC1PLVq1cNmb0ffvhBLXft2lUtd+nSRS3Xto+zTZs26lNoXl6eHpOTNKtGaf/1pF27doasLmfOnEFBQQEAYNCgQXoMVL87P/PMM+q/7U+9IGoMERERqsFdvHhRjxX7zP58yejoaLWcn5+vlnW2faH2n0bJuZq0Ua5duxY9e/as9dOc/XlnUVFRhqwude0otxcaGqqW7Y80EjUGV1dX9ZX5zJkzeqycPXsWqB5vu0oHAGJiYtTluLYxuqKiInUaUm37/unWNWmjXL16Nc6dO4c5c+boEVB9L0kb+wM7ZsLDw9G6dWtAu7JBZ39e2sCBAw0ZUWOYMGECUH35bFpamh4DAHbt2gUAiIuLMxzM8fT0xIMPPggA2Lp1K/55DwejvXv3qmXbaXHUCPS7ZNTE0TtsmHn55ZfVtjZv3mzIrFarDBkyRABIcHCwlJWVGXIRkW+//VbCwsJk1KhRcu3aNUM2efJkASDu7u413q7qxo0b0rt3bwEgvXv3NtyuilomZ9WtrqCgQG373nvv1WODgoICCQgIEADy4osv6rFs2bJFbWvXrl16LCdPnhSLxSIA5IsvvtBjeeCBBwSAtGnThncPagBHa8R8RD02ZqagoEDdgDQkJETS09NFRKS8vFxmzZolqL4J6T/+8Q99qoiIjB49Wv0ua9euNWS5ubnSvXt3QXUjTEpKUll+fr5MmDBBAIinp6fs27fPMJdaJmfVrU1FRYVcuXJFVqxYobYdEBAgiYmJN71x29u0aZO4ubmJm5ubbNq0Sa1PS0uT0NBQASAvvfSSYY69119/XQBIYGCgHDt2TKT6d5k/f776PVauXKlPIwc4WiPmI+qxMUfk5eXJpEmTxMXFRVxdXSUmJkYCAwMFgPTr10/279+vT1HmzZsnqG6mycnJeix5eXnyq1/9St1YNTIyUvr166du6Dtq1Cg5deqUPo1aKGfWrYioG/DW9tiwYYM+RUlISJDIyEgBIFFRUTJo0CBxdXUVPz+/Gm80rXv//ffF29tbLBaL3HHHHRIUFCQAJDQ0VD777DN9ODnI0RqxSE07PjS287QcGOqw77//Hnv27EFeXh7atm2LmJgY3HHHHfowAxHB9u3bERISgl69eumxUlBQgAMHDuC7776D1WpF+/btcdddd6nTg+jfQ2PU7a2wWq04cuQIzpw5gxs3biA8PBzDhw+Hp6enPrRGP/74I3bu3ImLFy+iTZs2iIyMxODBg3l7tVvgaI3ctkZJ1NhYt2TG0RrhWxERkQk2SiIiE2yUREQm2CiJiEywURIRmWCjJCIywUZJRGSCjZKIyAQbJRGRCTZKIiITbJRERCbYKImITLBREhGZYKMkIjLBRklEZIKNkojIBBslEZEJNkoiIhNslEREJtgoiYhMsFESEZlgoyQiMsFGSURkgo2SiMgEGyURkQk2SiIiE2yUREQm2CiJiEywURIRmWCjJCIywUZJRGSCjZKIyAQbJRGRCTZKIiITbJRERCbYKImITLBREhGZYKMkIjLRYhtlRUUFsrOzkZ2djcrKSj0mum3y8/ORk5PToLosKSnBpUuXUF5erkfUiCwiIvpKncViAQA4MLRORUVFiI+P11fXavr06fjFL36hr67Tvn37sGDBAiQkJKCsrAwA4O7ujnvuuQfz5s3DyJEj9SnUQjmrbmtSWFiIt956C4WFhfjwww/1+Cb5+fl48803sW7dOvzwww8AgNatW2PMmDF444030LdvX32KUlZWhiVLlmDlypVIS0sDqv9ttpoePXq0PoUc5HCNiAMAiIND67Rr1y61LbOHu7u7nDp1St9EnZYsWSIWi0VcXFxk4cKFcunSJTl9+rRMmjRJAIjFYpEPP/xQn0YtlLPq1l5mZqbMnTtX/P39BYDEx8frQ26SlpYmISEhAkCmTZsm6enpkpOTI0uXLhU3Nzfx8PCQjRs36tNERKSgoEAGDx4sACQ8PFz+/ve/y6VLl2T16tXi6+srAOS9997Tp5GDHK0R8xH12JiZxYsXCwD5zW9+I5s3b5YdO3bc9Jg5c6YAkDfffFOfXqeDBw+KxWIRAPK73/3OkFmtVomLixMA4uHhIZcvXzbk1DI5q25tpk+fLhaLRdzd3dW2zRplRUWFxMTECAAZP368Hst7770nAMTLy0suXLigxzJx4kQBIK1bt5a0tDRD9o9//EP9Hvv27TNk5BhHa8R8RD02ZmbSpEkyYsQIfbWSl5cngYGBEhYWJuXl5Xpcp1mzZqmCKyws1GNZv369+nesWLFCj6kFclbd2uzYsUNyc3MlNTXV4Ua5Zs0aNXbnzp16LKWlpeLp6SkAZMqUKYbs7Nmzau6vfvUrQ2YzcuRIASA/+9nP9Igc4GiNNOnBHE9PTzz55JP6amXWrFn44YcfsGDBAri7u+txnTp37gwAmDp1Kvz8/PQY4eHhajkzM9OQETkiNjYWHTp0QLdu3fSoVqtWrQIA+Pj4YOjQoXoMT09Ptd98/fr1hoM0X375pVqubT/kww8/DAA4cOAAUlJS9JicpEkb5YcffohHH31UXw0A2L9/P9asWYPevXtj4sSJemzqhRdeQHp6OpYsWaJHAIDs7Gy13LZtW0NGVB+urq76qhpVVlZi9+7dAIDo6Oha5/Xr1w8AUFxcjGPHjqn1ycnJarl79+5q2d7gwYPV8tatWw0ZOU+TNsq6zJ49GwDw/PPPqyNR9WGxWNCtWze4uNT8T1q3bh1QPa4+R96JGiojIwOlpaUAUOenUPvs5MmTarm4uFgt+/v7q2V7tm9SAHDixAlDRs5Tc1dpYlu3bsWhQ4fg7++PyZMn6/EtEREsW7YMf/nLXwAAr7zyCvr06aMPI3K6S5cuqeX27dsbMntBQUFqOSsrSy37+Pio5by8PLVsz/6DQUZGhiEj52kWjXL+/PkAgEcffRReXl56XG+VlZXYunUr3n77bfTr1w8zZ85Enz59sHbtWrz55pv6cKJGYf+JsKb95jb2DbGkpEQt27+h1/Zp8dy5c2q5qKjIkJHz3PZGeeTIERw4cAAA8NBDD+lxg5SWlmLSpEmYN28eTp48iZiYGDz00EO466679KFEjebatWtq2c3NzZDZ8/DwUMuFhYVqOT4+Xu2GWr9+vVpv7//+7//Usn1jJue67Y3ygw8+AKq/mtxzzz163CC+vr64cuUKioqKsHHjRvj5+eG3v/0tevbsibffflsfTtQorFarWm7VqpUhs1fbQZ6ePXuqs0R27NiB1atXG/KVK1ciMTFRfQuz/2RKznVbG+X169fVO2V8fHydxdQQvr6+iI+Px86dOzFlyhRUVlZi3rx5WL58uT6UyOnsz66wXU5bE/uv276+voZs6dKl6uDj5MmTER8fj3nz5mHMmDF49dVX8dlnn6kDRt7e3oa55Dy3tVFu3rxZFdC9996rx05jsViwbNkyBAYGAgBee+013lSAGp39/nZbM6vJjRs31LK+j75169bYuHEj/v73v+Pxxx9XpxANHToUycnJhtOG6jpgRLfmtjbKzz77TC3HxsYaMmdr06YN7rvvPqB635H9+WpEjSEkJEQtX7161ZDZs90kAwC6du1qyGzGjRuHlStXIiEhAdu2bcOrr76Kdu3aGS6e6N27t2EOOc9ta5RWqxU7duwAqovD/hSJxmJfhLWdbkHkLBEREeogzsWLF/VYsc/qe+paenq6Wq7rDkR0a25bo0xOTlbvsgMGDNDjehs3bhxCQkLqLEj7o5C1ncBL5Cyurq648847AQBnzpzRY+Xs2bNA9XjbVTqo/jDxyiuvGI5s6/bs2QNUz/2P//gPPSYnuW2N0v68sNouz6qPb775BllZWXjllVf0SLH9THd3d6c0ZyIzEyZMAKovobXdS1K3a9cuAEBcXJzhYE5SUhIWLFiA6dOn4/Dhw3Yz/klE1PXg9957L9q1a6cPISe5bY3S/h02LCzMkNUmISEB4eHhiIuLu+mcseHDhwMA1qxZo66vtXfy5Ens27cPAPDkk0+iTZs2+hAih9if61jXQRpU36QlICAAAPCnP/1Jj7F161Z1Bc/cuXMNWdeuXdWpQ0uXLjVkALBlyxZ1I4xXX31Vj8mZ9NsJ1cTRWxHVxy9+8Qu13fXr1+txjUaPHq3mrF271pCdPXtWAgMDBYAEBwdLUlKSypKSkqR79+4CQAYPHiwlJSWGudQyObtuKyoq5MqVK7JixQq17YCAAElMTJRr167pw5VNmzaJm5ubuLm5yaZNm9T6tLQ0CQ0NFQDy0ksvGebYzJ07V1B90+m//vWvav3BgwelQ4cOAkBee+01wxxynKM1Yj6iHhurj/vuu09td8uWLXpco3nz5gkAcXNzk+TkZD2WtLQ0GTt2rFgsFrFYLHLHHXdIz549BdV3TH/22WfZJP+NOLtubTfgre2xYcMGfYqSkJAgkZGRAkCioqJk0KBB4urqKn5+frJ8+XJ9uGK1WmXhwoXStm1bASDdunWTqKgoASD+/v6ybNkyfQrVg6M10qT/zxx7e/fuVadFDBs2TJ3jWBcRwfbt2xESEoJevXrpsZKdnY0DBw4gLy8P7u7u6Nq1K4YMGcITcv/NNEbd3gqr1YojR47gzJkzuHHjBsLDwzF8+HB4enrqQ2/y448/Yv/+/bhw4QIsFouaW9/7tpKRozVy2xolUWNj3ZIZR2vkth3MISL6qWCjJCIywUZJRGSCjZKIyAQbJRGRCTZKIiITbJRERCbYKImITLBREhGZYKMkIjLBRklEZIKNkojIBBslEZEJNkoiIhNslEREJtgoiYhMsFESEZlgoyQiMsFGSURkgo2SiMgEGyURkQk2SiIiE2yUREQm2CiJiEywURIRmWCjJCIywUZJRGSCjZKIyAQbJRGRCTZKIiITbJRERCbYKImITLBREhGZYKMkIjLBRklEZIKNkojIBBslEZEJNkoiIhPNplFWVFSgsLAQ165d0yOnOnr0KAoLC/XVRA6rqqpCbm4u8vPz9ciUbe53332H8vJyPaZmqtk0yueeew7t2rVD37599ahe3njjDcTGxtb46NevHwYNGoTr16/r04hMHTt2DPHx8fD29kanTp0QFBSEoKAgzJkzB0VFRfpwg4MHD+I///M/4efnh06dOqFLly5o06YNfvazn2HdunX6cGpuxAEAxMGhDZKUlCStWrUSABIaGqrH9TJo0CD1+9b06N69uz6FWihn1u2qVavExcVFAMiMGTMkJSVFTp06JePHjxcAEhkZKTk5Ofo0ERH56KOPxMXFRdzc3OSdd96RzMxMycjIkCVLloi7u7sAkKeeekqfRk3A0RoxH1GPjTVUbGys+hm32ijbt28vEyZMkB07dtT4OHnypD6FWihn1W1SUpJqaFOnTjVklZWVMnz4cAEgo0ePNmQiIunp6WruggUL9FgWLVqkfs+//e1vekyNzNEaMR9Rj401xOeffy5+fn4SGRl5y43y+vXrAkCWLl2qR/RvyFl1O3HiRLWtixcv6rHs2rVL5du2bTNk7733ngAQV1dXuXLliiETEfn+++/V3DFjxugxNTJHa+S27qMsKyvDCy+8gJkzZ8LLy0uP6y0jIwMA0LNnTz0iapCqqips2rQJANCrVy+EhIToQzB8+HC0b98eAPDxxx8bsnbt2gEAHnzwQfj7+xsyAAgKCoKbmxsAICUlRY+pmbitjXLJkiW4fv06Zs+ejbKyMj2ut8zMTABAZGSkHhE1SGZmJkpKSgAA3bt312MAgMViwaBBgwAAW7duNWRPPPEEEhMTsXr1asN6m5KSElRUVACAapjU/Ny2RpmdnY233noLr7/+Onx9fZ3SKC9cuAA3NzeEhYXpEVGDFBcXq+WaPhHadO7cGQBQVFSk3rBR3UT79+8PT09Pu9H/sn37drU8cuRIQ0bNx21rlC+//DKCg4Px1FNP6VGDZWZmonv37tiyZQvuv/9+dOjQAe3atUNUVBRmz56NnJwcfQpRnXx8fNRyXl6eIbPn4vKvl5JtF5CZsrIyvPbaa0D1p8mZM2fqQ6iZuC2N8tChQ1i1ahXee+89uLq66nGDZWZm4vz58/jlL3+Jfv364fe//z0WLlyIqqoqLFmyBNHR0Thy5Ig+jahWoaGhqlkmJSXhn/v/b3bu3Dm1bHZOJQCUl5fjkUceQXJyMgDgrbfeQq9evfRh1FzoR3dq4uiRIUdYrVa56667JDY21rA+NDT0lo96x8TESLdu3SQjI8OwvrCwULp06SIApGvXrnL9+nVDTi2Ts+r20UcfVdvatWuXHsvZs2fVOZYA5NNPP9WHGBQUFMiIESPUeJ5Defs4WiPmI+qxMUd8+umnYrFYJDEx0bDeGY3y6NGjkpaWpq8WsTtNA4D88Y9/1GNqgZxVt+fOnRNvb28BIP369ZNr166p7MqVK9K/f3+588471c/bsGGDYb69rKws6d27txr79ttv60OoCTlaI0361fv69et4+eWXMXnyZPTv31+Pb9mAAQMQERGhrwYA3HvvvWrZfgc6kZnIyEh8/vnn8PHxwYkTJxAVFYVZs2bhueeeQ1RUFIYPH45x48ap8d7e3ob5Nrm5uYiNjcXZs2fRpk0bfPHFF3j55Zf1YdQMNWmjfPvtt1FQUIAFCxboUaPr1q2bWj5//rwhIzIzevRonDt3DvPnz0ffvn1x/PhxFBYWYvXq1Vi2bJnhrA3bOZX2ysvLMW7cOKSnp6Nr167q2m/6abBIbXun7VgsFuCfn0/1yGG5ubkICwuDl5dXjTe+OHjwIMrLy+Hh4YG7774bALBq1Sp07dpVH9pgtn9HREQE0tLS9JhaGGfUraMmTpyIv/71r7BYLCgtLUXr1q0N+UsvvYR3330X3bt3x86dO9GlSxdDTreHozXSZJ8ob9y4gYkTJ+LBBx9EWFjYTQ/b0W9XV1e1LigoSN9Mg9m/49uuliBylvT0dABAjx49bmqSGRkZWLJkCdq3b88m+VOl77SsiaM7PG/FrR7MWbNmjfTo0UO2bNmiRyIikpqaqv4djz32mB5TC+Ssut23b588++yzN51NYVNcXKzufvXCCy/osUybNk0AyN///nc9UgoLC2XRokVSXl6uR9SIHK0R8xH12NitsDXKLl266JFDxowZIwAkOjpaj0REZOXKlerfsXr1aj2mFshZdfvggw8K6rhpxbp169TPOnTokCG7evWqeHp6yj333GNYr/vLX/4ifn5++mpqZI7WSJN99XaU/SVjuoSEBISHhyMuLu6mcTExMQCA5ORkfPXVV4ZMRPDhhx8CAIKDgzFhwgRDTlQX24HALVu2IDU11ZBZrVYsXboUqD7gM3jwYEO+efNm/Pjjj5g+fbphvb3MzEy89dZbqoapGdI7Z00c7boNUVxcLLt371ZfXQDIjh07pLS0VB8qo0ePVmPWrl1ryAoKCiQiIkIASEhIiKSnp4uISHl5ucyaNUsAiJubm/zjH/8wzKOWy1l1e/nyZQkMDBQAMmzYMLl69aqIiJSWlsrTTz8tACQ4OLjGW7DZ36LN7PHrX/9an06NzNEaMR9Rj43VV0ZGxk3FYnvUtK9y3rx5guqGl5ycrMeSl5cnkyZNEhcXF3F1dZWYmBhV4P369ZP9+/frU6gFc2bdnj17Vt1g2svLS/r37y/t2rUTADJq1Kha918OHDjwptqu7cELIZqeozXSZKcHOYOIYPv27QgJCanzutjvv/8ee/bsQV5eHtq2bYuYmBjccccd+jBq4RqjbtPT03H48GEUFBQgICAAgwcPRnh4uD6MfiIcrZGfVKMkqg/WLZlxtEaa3cEcIqLmho2SiMgEGyURkQk2SiIiE2yUREQm2CiJiEywURIRmWCjJCIywUZJRGSCjZKIyAQbJRGRCTZKIiITbJRERCbYKImITLBREhGZYKMkIjLBRklEZIKNkojIBBslEZEJNkoiIhNslEREJtgoiYhMsFESEZlgoyQiMsFGSURkgo2SiMgEGyURkQk2SiIiE2yUREQm2CiJiEywURIRmWCjJCIywUZJRGSCjZKIyAQbJRGRCTZKIiITbJRERCbYKImITNz2Rnnjxg1cvnwZRUVFenRLKioqkJ2djezsbFRWVuoxUYNVVVUhNzcX+fn5euSQxqp5ajy3rVF+/fXXGDFiBFq3bo2uXbuibdu2iIyMxKJFi3Djxg19uMP27duHsWPHwtfXF8HBwQgODkabNm1w7733YseOHfpwIocdO3YM8fHx8Pb2RqdOnRAUFISgoCDMmTPHoabXWDVPTUAcAEAcHOqQd999VwCIr6+vrFq1SrKysmTz5s0SGBgoACQuLk4qKyv1aaaWLFkiFotFXFxcZOHChXLp0iU5ffq0TJo0SQCIxWKRDz/8UJ9GLZQz63bVqlXi4uIiAGTGjBmSkpIip06dkvHjxwsAiYyMlJycHH2a0lg1T7fG0RoxH1GPjTkiISFBbe+bb74xZBs2bFDZJ598YsjMHDx4UCwWiwCQ3/3ud4bMarVKXFycABAPDw+5fPmyIaeWyVl1m5SUJO7u7gJApk6dasgqKytl+PDhAkBGjx5tyGwaq+bp1jlaI+Yj6rExR/Tv318ASGxsrB5JVVWVhIaGCgCZPn26Htdp1qxZAkC8vLyksLBQj2X9+vXq37FixQo9phbIWXU7ceJEta2LFy/qsezatUvl27Zt0+NGq3m6dY7WSJPuozx06BCOHz8OAJg0aZIew8XFBcuWLUNUVBTGjRunx3Xq3LkzAGDq1Knw8/PTY4SHh6vlzMxMQ0ZUm6qqKmzatAkA0KtXL4SEhOhDMHz4cLRv3x4A8PHHHxuyxqx5akJ656yJo13XzKuvvqq2de7cOT2+JVarVdLT06WqqkqPRETkyy+/VD/7zTff1GNqgZxRt+fPn1fbGTt2rB4r999/vwAQPz8/w/rGrHm6dY7WSJN+okxMTAQAeHh4IDIyUo9vicViQbdu3eDiUvM/ad26dUD1uPj4eD0mqlFxcbFa9vf3N2T2bN9oioqKDN9YGrPmqenU3FUaSXJyMgAgLCwMAGC1WpGQkIDFixdjxYoVSEhIcPo5jyKCZcuW4S9/+QsA4JVXXkGfPn30YUQ18vHxUct5eXmGzJ79G3RGRoZavh01T41A/4hZE0c/npqxHZUeOnSonD9/Xvr37y/t27eXO+64Q1xdXQXVp1kcPnxYn1ovFRUVsmXLFlmwYIH07dtXAEifPn1k7dq1+lBqwZxRtxUVFeLj4yMApGPHjmK1WvUhIiISGxurft6GDRvU+qaqeWoYR2vEfEQ9NlaXkpIStZ2BAwdKZGSkLF++XCoqKkREJDMzU6KjowWAtGnTRk6fPq1vwmFFRUXi7++vfl5MTIy8/vrrkp6erg+lFswZdSsi8uijj6pt7dq1S4/l7Nmz6hxLAPLpp5+KNHHNU8M4WiPmI+qxsboUFBSo7QCQOXPm6EMkKSlJvQOPGDFCj+utqKhINm7cKPfcc48AEFdXV1mwYIE+jFooZ9StiMi5c+fE29tbAEi/fv3k2rVrKrty5Yr0799f7rzzTvXzbJ8ob0fNU/04WiPmI+qxsbpcu3ZNbcfFxUXy8/P1ISIiMnToUDUuMzNTjxvEarXKlClT1HaXLVumD6EWyBl1a7Nt2zb1FbxLly4yc+ZMmTFjhnTo0EGee+45ef3119XP2759u8htrnlyjKM10mQHc+x3ioeEhCAwMNCQ2wwdOlQtHz582JA1lMViwbJly9TPfO2111BeXq4PI6rV6NGjce7cOcyfPx99+/bF8ePHUVhYiNWrV2PZsmUoKytTY23nVN7OmifnarJGCQDBwcEAADc3Nz1SOnXqpJbrOspYX23atMF9990HALh27RqOHTumDyGqU8eOHfHaa6/hq6++ws6dO/Hpp58iLi4OsLuIwWKxoGfPnmrO7ax5cp4mbZTR0dEAUOftqaxWq1r28vIyZLeqa9euapkFSc6Unp4OAOjRowdat26t1t/umifnaNJGafuKUVhYiNzcXD0GAGRlZanliIgIQ1aXcePGISQkBBcvXtQj5dq1a2q5rpOHiezt378fM2bMqPXS1+vXr6vLFB944AFD1pg1T01I32lZE0d3eJpJSUlR2/r444/1WEREBg4cKADEx8dHSkpK9LhWrVu3FgAyadIkPVJsO83d3d3l+vXrekwtjLPq9sEHHxQAMmbMGD0SEZF169apn3Xo0CFD1pg1T7fO0RoxH1GPjTliwoQJgurTLPTrso8ePap+1gsvvGDIRES+/fZbCQsLk1GjRhlO0RARuffee9Xcms51S0pKUvmzzz6rx9QCOatuZ86cqbaVkpJiyKqqquSuu+4S1HGbtVupeWpcjtaI+Yh6bMwRWVlZEhwcLADkqaeekvLychERSU1NlYiICAEg0dHRUlxcrE+V0aNHq99Fv8rm7Nmz6iaowcHBkpSUpLKkpCTp3r27AJDBgwfzXfvfhLPq9vLly6q2hg0bJlevXhURkdLSUnn66adVzdV0Cza5xZqnxuVojZiPqMfGHHXhwgUZNmyYAJCAgACJjo6WVq1aiYuLi0yePLnW883mzZsnAMTNzU2Sk5P1WNLS0mTs2LFisVjEYrHIHXfcIT179hRUf91+9tln2ST/jTizbs+ePasuU/Ty8pL+/ftLu3btBICMGjVKMjIy9CkGDa15alyO1ohF/jm4ThaLBfjn1vTolqSkpCAxMRFFRUXo2LEjhg0bps5Bq4mIYPv27QgJCUGvXr30WMnOzsaBAweQl5cHd3d3dO3aFUOGDIG3t7c+lFqwxqjb9PR0HD58GAUFBQgICMDgwYMN9zo1U9+ap8blaI3c1kZJ1JhYt2TG0Rpp0tODiIh+itgoiYhMsFESEZlgoyQiMsFGSURkgo2SiMgEGyURkQk2SiIiE2yUREQm2CiJiEywURIRmWCjJCIywUZJRGSCjZKIyAQbJRGRCTZKIiITbJRERCbYKImITLBREhGZYKMkIjLBRklEZIKNkojIBBslEZEJNkoiIhNslEREJtgoiYhMsFESEZlgoyQiMsFGSURkgo2SiMiERUREX6mzWCz6KiKiFsOsDfITJRGRCYc+URIR/TvjJ0oiIhNslEREJtgoiYhM/H9YiF1MhLhOigAAAABJRU5ErkJggg==;" parent="1" vertex="1">
          <mxGeometry x="42" y="1271" width="123.14" height="253" as="geometry" />
        </mxCell>
        <mxCell id="feYQ3WDWf9__3DX3kqpM-11" value="&lt;div&gt;`\sum X_i^2 = 6.5^2 + 4.3^2 + 6.9^2 + 6.0^2 + 6.9^2 + 6.9^2 + 5.8^2 + 7.3^2 + 4.5^2 + 6.3^2 = 386.44`&lt;/div&gt;" style="text;html=1;align=left;verticalAlign=middle;resizable=0;points=[];autosize=1;strokeColor=none;fillColor=none;fontColor=#990000;fontStyle=0;labelBorderColor=none;textShadow=0;flipV=1;" parent="1" vertex="1">
          <mxGeometry x="80" y="1745" width="570" height="30" as="geometry" />
        </mxCell>
        <mxCell id="feYQ3WDWf9__3DX3kqpM-12" value="&lt;div&gt;`\hat{\sigma}_{\text{LeadTime}}^2 = \frac{386.44 - 10 \times (6.14)^2}{9} = \frac{386.44 - 377.00}{9} = \frac{9.44}{9} = 1.049`&lt;/div&gt;" style="text;html=1;align=left;verticalAlign=middle;resizable=0;points=[];autosize=1;strokeColor=none;fillColor=none;fontColor=#990000;fontStyle=0;flipV=1;" parent="1" vertex="1">
          <mxGeometry x="80" y="1801" width="680" height="30" as="geometry" />
        </mxCell>
        <mxCell id="feYQ3WDWf9__3DX3kqpM-13" value="&lt;div&gt;`\hat{\sigma}_{\text{LeadTime}} = \sqrt{\hat{\sigma}^2} = \sqrt{1.049} \approx 1.024`&lt;/div&gt;" style="text;html=1;align=left;verticalAlign=middle;resizable=0;points=[];autosize=1;strokeColor=none;fillColor=none;fontColor=#990000;fontStyle=0;flipV=1;" parent="1" vertex="1">
          <mxGeometry x="80" y="1851" width="470" height="30" as="geometry" />
        </mxCell>
        <mxCell id="feYQ3WDWf9__3DX3kqpM-14" value="&lt;div&gt;`\hat{\sigma}^2 = \frac{\sum_{i=1}^{n} X_i^2 - n\bar{X}^2}{n - 1}`&lt;/div&gt;" style="text;html=1;align=left;verticalAlign=middle;resizable=0;points=[];autosize=1;strokeColor=none;fillColor=none;fontColor=#990000;fontStyle=0;flipV=1;" parent="1" vertex="1">
          <mxGeometry x="40" y="1686" width="360" height="30" as="geometry" />
        </mxCell>
        <mxCell id="feYQ3WDWf9__3DX3kqpM-15" value="`\hat{\text{Cov}}(X_{LeadTime}, X_{Demand}) = `" style="text;html=1;align=left;verticalAlign=middle;resizable=0;points=[];autosize=1;strokeColor=none;fillColor=none;flipV=1;fontColor=#346058;" parent="1" vertex="1">
          <mxGeometry x="42" y="1971" width="280" height="30" as="geometry" />
        </mxCell>
        <mxCell id="feYQ3WDWf9__3DX3kqpM-16" value="`\hat{\text{Cov}}(X_{LeadTime}, X_{Demand}) = \frac{1}{10 - 1} \left( 6328.5 - 10 \cdot 6.14 \cdot 101.8 \right) = \frac{77.98}{9} \approx 8.664`" style="text;html=1;align=center;verticalAlign=middle;resizable=0;points=[];autosize=1;strokeColor=none;fillColor=none;flipV=1;fontColor=#346058;spacingLeft=-71;" parent="1" vertex="1">
          <mxGeometry x="80" y="2111" width="700" height="30" as="geometry" />
        </mxCell>
        <mxCell id="feYQ3WDWf9__3DX3kqpM-17" value="`\sum_{j=1}^{10} X_{LeadTime,j} \cdot X_{Demand,j} = (6.5 \cdot 103) + (4.3 \cdot 83) + \cdots + (4.5 \cdot 92) + (6.3 \cdot 96) = 6328.5`" style="text;html=1;align=center;verticalAlign=middle;resizable=0;points=[];autosize=1;strokeColor=none;fillColor=none;flipV=1;fontColor=#346058;spacingLeft=-47;" parent="1" vertex="1">
          <mxGeometry x="64" y="2051" width="700" height="30" as="geometry" />
        </mxCell>
        <mxCell id="feYQ3WDWf9__3DX3kqpM-19" value="&lt;div&gt;`\hat{\sigma}_{\text{Demand}} = 9.93`&lt;/div&gt;" style="text;html=1;align=left;verticalAlign=middle;resizable=0;points=[];autosize=1;strokeColor=none;fillColor=none;fontColor=#990000;fontStyle=0;flipV=1;" parent="1" vertex="1">
          <mxGeometry x="80" y="1899.79" width="220" height="30" as="geometry" />
        </mxCell>
        <mxCell id="feYQ3WDWf9__3DX3kqpM-20" value="&lt;span style=&quot;background-color: transparent;&quot;&gt;`\rho = \frac{ 8.66}{(1.02) \cdot (9.93)} = 0.86`&lt;/span&gt;" style="text;html=1;align=left;verticalAlign=middle;resizable=0;points=[];autosize=1;strokeColor=none;fillColor=none;flipV=1;fontColor=#5B7295;" parent="1" vertex="1">
          <mxGeometry x="80" y="2261" width="260" height="30" as="geometry" />
        </mxCell>
        <mxCell id="feYQ3WDWf9__3DX3kqpM-28" value="&lt;span style=&quot;color: rgb(153, 0, 0); font-family: Mali; font-size: 14px; font-style: normal; font-variant-ligatures: normal; font-variant-caps: normal; font-weight: 700; letter-spacing: normal; orphans: 2; text-indent: 0px; text-transform: none; widows: 2; word-spacing: 0px; -webkit-text-stroke-width: 0px; white-space: normal; background-color: rgb(236, 236, 236); text-decoration-thickness: initial; text-decoration-style: initial; text-decoration-color: initial; float: none; display: inline !important;&quot;&gt;Solution&lt;/span&gt;" style="text;whiteSpace=wrap;html=1;verticalAlign=middle;align=center;" parent="1" vertex="1">
          <mxGeometry x="290" y="1491" width="90" height="40" as="geometry" />
        </mxCell>
        <mxCell id="feYQ3WDWf9__3DX3kqpM-29" value="&lt;span style=&quot;background-color: transparent;&quot;&gt;`\mu_{LeadTime} = \frac{\sum_{i = 1}^{n} x_i}{n} = \frac{6.5+ 4.3+ 6.9+ 6.0+ 6.9+ 6.9+ 5.8+ 7.3+ 4.5 + 6.3}{10} = 6.14`&lt;/span&gt;" style="text;html=1;align=left;verticalAlign=middle;resizable=0;points=[];autosize=1;strokeColor=none;fillColor=none;fontColor=#000099;fontStyle=0;flipV=1;" parent="1" vertex="1">
          <mxGeometry x="40" y="1541" width="650" height="30" as="geometry" />
        </mxCell>
        <mxCell id="2-cDxpX_ePfVxid4cIx--8" value="سؤال 31 من الشيت" style="text;strokeColor=none;fillColor=#fff2cc;html=1;align=center;verticalAlign=middle;whiteSpace=wrap;rounded=1;fontSize=20;fontFamily=Kufam;fontSource=https%3A%2F%2Ffonts.googleapis.com%2Fcss%3Ffamily%3DKufam;dashed=1;dashPattern=12 12;gradientColor=none;fillStyle=auto;glass=0;shadow=0;sketch=1;curveFitting=1;jiggle=2;" parent="1" vertex="1">
          <mxGeometry x="19" y="1180" width="790" height="30" as="geometry" />
        </mxCell>
        <mxCell id="2-cDxpX_ePfVxid4cIx--123" value="`\frac{1}{n-1} \left( \sum_{j=1}^{n} X_{LeadTime,j}X_{Demand,j} - n \cdot \mu_{LeadTime} \cdot \mu_{Demand} \right)`" style="text;html=1;align=center;verticalAlign=middle;resizable=0;points=[];autosize=1;strokeColor=none;fillColor=none;flipV=1;fontColor=#346058;" parent="1" vertex="1">
          <mxGeometry x="94.99999999999997" y="1971" width="650" height="30" as="geometry" />
        </mxCell>
        <mxCell id="h6HBYpiYy9ArdIUEMoVo-1" value="lead time and demand are strongly dependent" style="text;html=1;align=center;verticalAlign=middle;resizable=0;points=[];autosize=1;strokeColor=none;fillColor=none;fontFamily=Mali;fontSource=https%3A%2F%2Ffonts.googleapis.com%2Fcss%3Ffamily%3DMali;fontStyle=1;fontColor=#006600;" parent="1" vertex="1">
          <mxGeometry x="280" y="2261" width="300" height="30" as="geometry" />
        </mxCell>
      </root>
    </mxGraphModel>
  </diagram>
  <diagram name="Q9" id="ZMtd_Bqm-lodbS9Lw4SN">
    <mxGraphModel dx="1072" dy="-506" grid="1" gridSize="10" guides="1" tooltips="1" connect="1" arrows="1" fold="1" page="1" pageScale="1" pageWidth="827" pageHeight="1169" background="none" math="1" shadow="0">
      <root>
        <mxCell id="9bpSgquHpa0SnpSkXp1C-0" />
        <mxCell id="9bpSgquHpa0SnpSkXp1C-1" parent="9bpSgquHpa0SnpSkXp1C-0" />
        <mxCell id="9bpSgquHpa0SnpSkXp1C-15" value="&lt;span style=&quot;color: rgb(153, 0, 0); font-family: Mali; font-size: 14px; font-style: normal; font-variant-ligatures: normal; font-variant-caps: normal; font-weight: 700; letter-spacing: normal; orphans: 2; text-indent: 0px; text-transform: none; widows: 2; word-spacing: 0px; -webkit-text-stroke-width: 0px; white-space: normal; background-color: rgb(236, 236, 236); text-decoration-thickness: initial; text-decoration-style: initial; text-decoration-color: initial; float: none; display: inline !important;&quot;&gt;Solution&lt;/span&gt;" style="text;whiteSpace=wrap;html=1;verticalAlign=middle;align=center;" vertex="1" parent="9bpSgquHpa0SnpSkXp1C-1">
          <mxGeometry x="270" y="1410" width="90" height="40" as="geometry" />
        </mxCell>
        <mxCell id="9bpSgquHpa0SnpSkXp1C-17" value="سؤال 9 من الشيت" style="text;strokeColor=none;fillColor=#fff2cc;html=1;align=center;verticalAlign=middle;whiteSpace=wrap;rounded=1;fontSize=20;fontFamily=Kufam;fontSource=https%3A%2F%2Ffonts.googleapis.com%2Fcss%3Ffamily%3DKufam;dashed=1;dashPattern=12 12;gradientColor=none;fillStyle=auto;glass=0;shadow=0;sketch=1;curveFitting=1;jiggle=2;" vertex="1" parent="9bpSgquHpa0SnpSkXp1C-1">
          <mxGeometry x="19" y="1180" width="790" height="30" as="geometry" />
        </mxCell>
        <mxCell id="Nrej1NAbOjx1tPofYfFW-1" value="\[ f(x) = \begin{cases} \frac{1}{2} e^{-x/2} &amp;amp; x \geq 0 \\ 0 &amp;amp; \text{otherwise} \end{cases} \]" style="text;html=1;align=center;verticalAlign=middle;whiteSpace=wrap;rounded=0;fontFamily=Helvetica;fontStyle=0;fontSize=14;labelBackgroundColor=none;labelBorderColor=none;flipV=1;" vertex="1" parent="9bpSgquHpa0SnpSkXp1C-1">
          <mxGeometry x="40" y="1280" width="240" height="80" as="geometry" />
        </mxCell>
        <mxCell id="Nrej1NAbOjx1tPofYfFW-2" value="&lt;div style=&quot;line-height: 130%;&quot;&gt;The life of a laser- ray device used to inspect cracks in aircraft wings is given by `X`, continuous random variable,&amp;nbsp;&lt;span style=&quot;background-color: transparent; color: light-dark(rgb(0, 0, 0), rgb(255, 255, 255));&quot;&gt;assuming `X \le 0`.The pdf of lifetime in years is ,&lt;/span&gt;&lt;/div&gt;" style="text;html=1;align=left;verticalAlign=middle;whiteSpace=wrap;rounded=0;fontFamily=Helvetica;fontStyle=0;fontSize=14;labelBackgroundColor=none;labelBorderColor=none;flipV=1;" vertex="1" parent="9bpSgquHpa0SnpSkXp1C-1">
          <mxGeometry x="40" y="1240" width="580" height="40" as="geometry" />
        </mxCell>
        <mxCell id="Nrej1NAbOjx1tPofYfFW-3" value="&lt;div style=&quot;line-height: 130%;&quot;&gt;&lt;div&gt;1. Determine the probability that the device will last for&amp;nbsp;&lt;span style=&quot;background-color: transparent; color: light-dark(rgb(0, 0, 0), rgb(255, 255, 255));&quot;&gt;less than 2 years.&lt;/span&gt;&lt;/div&gt;&lt;div&gt;2. Determine the probability that the life of laser ray&amp;nbsp;&lt;span style=&quot;background-color: transparent; color: light-dark(rgb(0, 0, 0), rgb(255, 255, 255));&quot;&gt;device is between 2 and 3 years.&lt;/span&gt;&lt;/div&gt;&lt;/div&gt;" style="text;html=1;align=left;verticalAlign=middle;whiteSpace=wrap;rounded=0;fontFamily=Helvetica;fontStyle=0;fontSize=14;labelBackgroundColor=none;labelBorderColor=none;flipV=1;" vertex="1" parent="9bpSgquHpa0SnpSkXp1C-1">
          <mxGeometry x="40" y="1360" width="580" height="40" as="geometry" />
        </mxCell>
        <mxCell id="Nrej1NAbOjx1tPofYfFW-4" value="\[ P(0 \le X \le 2) = F(2) - F(0) \]" style="text;html=1;align=center;verticalAlign=middle;whiteSpace=wrap;rounded=0;fontFamily=Helvetica;fontStyle=0;fontSize=14;labelBackgroundColor=none;labelBorderColor=none;flipV=1;fontColor=#990000;" vertex="1" parent="9bpSgquHpa0SnpSkXp1C-1">
          <mxGeometry x="50" y="1480" width="240" height="30" as="geometry" />
        </mxCell>
        <mxCell id="Nrej1NAbOjx1tPofYfFW-5" value="\[ F(X)_{inspection\_device} = 1 - e^{-\frac{x}{2}} \]" style="text;html=1;align=center;verticalAlign=middle;whiteSpace=wrap;rounded=0;fontFamily=Helvetica;fontStyle=0;fontSize=14;labelBackgroundColor=none;labelBorderColor=none;flipV=1;fontColor=#0000FF;" vertex="1" parent="9bpSgquHpa0SnpSkXp1C-1">
          <mxGeometry x="414" y="1410" width="210" height="40" as="geometry" />
        </mxCell>
        <mxCell id="Nrej1NAbOjx1tPofYfFW-6" value="\[ = (1 - e^{\frac{-2}{2}}) - (1 - e^{\frac{-0}{2}}) \]" style="text;html=1;align=center;verticalAlign=middle;whiteSpace=wrap;rounded=0;fontFamily=Helvetica;fontStyle=0;fontSize=17;labelBackgroundColor=none;labelBorderColor=none;flipV=1;fontColor=#990000;" vertex="1" parent="9bpSgquHpa0SnpSkXp1C-1">
          <mxGeometry x="130" y="1516" width="210" height="40" as="geometry" />
        </mxCell>
        <mxCell id="Nrej1NAbOjx1tPofYfFW-7" value="\[ = (1 - e^{-1}) - (1 - 1) \]" style="text;html=1;align=center;verticalAlign=middle;whiteSpace=wrap;rounded=0;fontFamily=Helvetica;fontStyle=0;fontSize=17;labelBackgroundColor=none;labelBorderColor=none;flipV=1;fontColor=#990000;" vertex="1" parent="9bpSgquHpa0SnpSkXp1C-1">
          <mxGeometry x="160" y="1557" width="180" height="40" as="geometry" />
        </mxCell>
        <mxCell id="Nrej1NAbOjx1tPofYfFW-8" value="\[ \approx 0.632 \]" style="text;html=1;align=center;verticalAlign=middle;whiteSpace=wrap;rounded=0;fontFamily=Helvetica;fontStyle=0;fontSize=17;labelBackgroundColor=none;labelBorderColor=none;flipV=1;fontColor=#990000;" vertex="1" parent="9bpSgquHpa0SnpSkXp1C-1">
          <mxGeometry x="270" y="1602" width="70" height="33" as="geometry" />
        </mxCell>
        <mxCell id="Nrej1NAbOjx1tPofYfFW-9" value="1" style="ellipse;whiteSpace=wrap;html=1;strokeWidth=1;fontFamily=Verdana;fontSize=14;verticalAlign=middle;spacingBottom=7;fillColor=#cce5ff;strokeColor=#36393d;spacingTop=5;" vertex="1" parent="9bpSgquHpa0SnpSkXp1C-1">
          <mxGeometry x="30" y="1485" width="20" height="20" as="geometry" />
        </mxCell>
        <mxCell id="Nrej1NAbOjx1tPofYfFW-11" value="\[ = (1 - e^{\frac{-3}{2}}) - (1 - e^{\frac{-2}{2}}) \]" style="text;html=1;align=center;verticalAlign=middle;whiteSpace=wrap;rounded=0;fontFamily=Helvetica;fontStyle=0;fontSize=17;labelBackgroundColor=none;labelBorderColor=none;flipV=1;fontColor=#990000;" vertex="1" parent="9bpSgquHpa0SnpSkXp1C-1">
          <mxGeometry x="140" y="1696" width="210" height="40" as="geometry" />
        </mxCell>
        <mxCell id="Nrej1NAbOjx1tPofYfFW-12" value="\[ = (1 - e^{\frac{-3}{2}})&amp;nbsp;- (1 - e^{-1})&amp;nbsp;\]" style="text;html=1;align=center;verticalAlign=middle;whiteSpace=wrap;rounded=0;fontFamily=Helvetica;fontStyle=0;fontSize=17;labelBackgroundColor=none;labelBorderColor=none;flipV=1;fontColor=#990000;" vertex="1" parent="9bpSgquHpa0SnpSkXp1C-1">
          <mxGeometry x="170" y="1737" width="180" height="40" as="geometry" />
        </mxCell>
        <mxCell id="Nrej1NAbOjx1tPofYfFW-13" value="\[ = 0.77 - 0.632 \]" style="text;html=1;align=center;verticalAlign=middle;whiteSpace=wrap;rounded=0;fontFamily=Helvetica;fontStyle=0;fontSize=17;labelBackgroundColor=none;labelBorderColor=none;flipV=1;fontColor=#990000;" vertex="1" parent="9bpSgquHpa0SnpSkXp1C-1">
          <mxGeometry x="220" y="1790" width="150" height="33" as="geometry" />
        </mxCell>
        <mxCell id="Nrej1NAbOjx1tPofYfFW-14" value="\[ P(2 \le X \le 3) = F(3) - F(2) \]" style="text;html=1;align=center;verticalAlign=middle;whiteSpace=wrap;rounded=0;fontFamily=Helvetica;fontStyle=0;fontSize=14;labelBackgroundColor=none;labelBorderColor=none;flipV=1;fontColor=#990000;" vertex="1" parent="9bpSgquHpa0SnpSkXp1C-1">
          <mxGeometry x="60" y="1660" width="240" height="30" as="geometry" />
        </mxCell>
        <mxCell id="Nrej1NAbOjx1tPofYfFW-15" value="\[ \approx 0.145 \]" style="text;html=1;align=center;verticalAlign=middle;whiteSpace=wrap;rounded=0;fontFamily=Helvetica;fontStyle=0;fontSize=17;labelBackgroundColor=none;labelBorderColor=none;flipV=1;fontColor=#990000;" vertex="1" parent="9bpSgquHpa0SnpSkXp1C-1">
          <mxGeometry x="290" y="1823" width="70" height="33" as="geometry" />
        </mxCell>
        <mxCell id="Nrej1NAbOjx1tPofYfFW-16" value="2" style="ellipse;whiteSpace=wrap;html=1;strokeWidth=1;fontFamily=Verdana;fontSize=14;verticalAlign=middle;spacingBottom=7;fillColor=#cce5ff;strokeColor=#36393d;spacingTop=5;" vertex="1" parent="9bpSgquHpa0SnpSkXp1C-1">
          <mxGeometry x="30" y="1665" width="20" height="20" as="geometry" />
        </mxCell>
      </root>
    </mxGraphModel>
  </diagram>
  <diagram name="Q11" id="6kgEJgXcNwnEg6JcUQ_U">
    <mxGraphModel dx="1540" dy="-221" grid="1" gridSize="10" guides="1" tooltips="1" connect="1" arrows="1" fold="1" page="1" pageScale="1" pageWidth="827" pageHeight="1169" background="none" math="1" shadow="0">
      <root>
        <mxCell id="7Juw7eIDhR4qtw-yaTz--0" />
        <mxCell id="7Juw7eIDhR4qtw-yaTz--1" parent="7Juw7eIDhR4qtw-yaTz--0" />
        <mxCell id="7Juw7eIDhR4qtw-yaTz--2" value="&lt;span style=&quot;color: rgb(153, 0, 0); font-family: Mali; font-size: 14px; font-style: normal; font-variant-ligatures: normal; font-variant-caps: normal; font-weight: 700; letter-spacing: normal; orphans: 2; text-indent: 0px; text-transform: none; widows: 2; word-spacing: 0px; -webkit-text-stroke-width: 0px; white-space: normal; background-color: rgb(236, 236, 236); text-decoration-thickness: initial; text-decoration-style: initial; text-decoration-color: initial; float: none; display: inline !important;&quot;&gt;Solution&lt;/span&gt;" style="text;whiteSpace=wrap;html=1;verticalAlign=middle;align=center;" parent="7Juw7eIDhR4qtw-yaTz--1" vertex="1">
          <mxGeometry x="369" y="1280" width="90" height="40" as="geometry" />
        </mxCell>
        <mxCell id="7Juw7eIDhR4qtw-yaTz--3" value="سؤال 11 من الشيت" style="text;strokeColor=none;fillColor=#fff2cc;html=1;align=center;verticalAlign=middle;whiteSpace=wrap;rounded=1;fontSize=20;fontFamily=Kufam;fontSource=https%3A%2F%2Ffonts.googleapis.com%2Fcss%3Ffamily%3DKufam;dashed=1;dashPattern=12 12;gradientColor=none;fillStyle=auto;glass=0;shadow=0;sketch=1;curveFitting=1;jiggle=2;" parent="7Juw7eIDhR4qtw-yaTz--1" vertex="1">
          <mxGeometry x="19" y="1180" width="790" height="30" as="geometry" />
        </mxCell>
        <mxCell id="7Juw7eIDhR4qtw-yaTz--5" value="&lt;div style=&quot;line-height: 130%;&quot;&gt;&lt;div style=&quot;line-height: 130%;&quot;&gt;A production process manufactures computer chips on the&amp;nbsp;&lt;span style=&quot;background-color: transparent; color: light-dark(rgb(0, 0, 0), rgb(255, 255, 255));&quot;&gt;average at `2%` non-conforming. Every day a random sample of&amp;nbsp;&lt;/span&gt;&lt;span style=&quot;background-color: transparent; color: light-dark(rgb(0, 0, 0), rgb(255, 255, 255));&quot;&gt;size `50` is taken from the process. If the sample contains more&amp;nbsp;&lt;/span&gt;&lt;span style=&quot;background-color: transparent; color: light-dark(rgb(0, 0, 0), rgb(255, 255, 255));&quot;&gt;than two non-conforming chips, the process will be stopped.&amp;nbsp;&lt;/span&gt;&lt;span style=&quot;background-color: transparent; color: light-dark(rgb(0, 0, 0), rgb(255, 255, 255));&quot;&gt;Determine the probability that the process is stopped by the&amp;nbsp;&lt;/span&gt;&lt;span style=&quot;background-color: transparent; color: light-dark(rgb(0, 0, 0), rgb(255, 255, 255));&quot;&gt;sampling scheme.&lt;/span&gt;&lt;/div&gt;&lt;/div&gt;" style="text;html=1;align=left;verticalAlign=middle;whiteSpace=wrap;rounded=0;fontFamily=Helvetica;fontStyle=0;fontSize=14;labelBackgroundColor=none;labelBorderColor=none;flipV=1;" parent="7Juw7eIDhR4qtw-yaTz--1" vertex="1">
          <mxGeometry x="35" y="1220" width="695" height="60" as="geometry" />
        </mxCell>
        <mxCell id="7Juw7eIDhR4qtw-yaTz--7" value="\[ P(0 \le X \le 2) = F(2) - F(0) \]" style="text;html=1;align=center;verticalAlign=middle;whiteSpace=wrap;rounded=0;fontFamily=Helvetica;fontStyle=0;fontSize=14;labelBackgroundColor=none;labelBorderColor=none;flipV=1;fontColor=#990000;" parent="7Juw7eIDhR4qtw-yaTz--1" vertex="1">
          <mxGeometry x="50" y="1480" width="240" height="30" as="geometry" />
        </mxCell>
        <mxCell id="7Juw7eIDhR4qtw-yaTz--9" value="\[ = (1 - e^{\frac{-2}{2}}) - (1 - e^{\frac{-0}{2}}) \]" style="text;html=1;align=center;verticalAlign=middle;whiteSpace=wrap;rounded=0;fontFamily=Helvetica;fontStyle=0;fontSize=17;labelBackgroundColor=none;labelBorderColor=none;flipV=1;fontColor=#990000;" parent="7Juw7eIDhR4qtw-yaTz--1" vertex="1">
          <mxGeometry x="130" y="1516" width="210" height="40" as="geometry" />
        </mxCell>
        <mxCell id="7Juw7eIDhR4qtw-yaTz--10" value="\[ = (1 - e^{-1}) - (1 - 1) \]" style="text;html=1;align=center;verticalAlign=middle;whiteSpace=wrap;rounded=0;fontFamily=Helvetica;fontStyle=0;fontSize=17;labelBackgroundColor=none;labelBorderColor=none;flipV=1;fontColor=#990000;" parent="7Juw7eIDhR4qtw-yaTz--1" vertex="1">
          <mxGeometry x="160" y="1557" width="180" height="40" as="geometry" />
        </mxCell>
        <mxCell id="7Juw7eIDhR4qtw-yaTz--11" value="\[ \approx 0.632 \]" style="text;html=1;align=center;verticalAlign=middle;whiteSpace=wrap;rounded=0;fontFamily=Helvetica;fontStyle=0;fontSize=17;labelBackgroundColor=none;labelBorderColor=none;flipV=1;fontColor=#990000;" parent="7Juw7eIDhR4qtw-yaTz--1" vertex="1">
          <mxGeometry x="270" y="1602" width="70" height="33" as="geometry" />
        </mxCell>
        <mxCell id="7Juw7eIDhR4qtw-yaTz--12" value="1" style="ellipse;whiteSpace=wrap;html=1;strokeWidth=1;fontFamily=Verdana;fontSize=14;verticalAlign=middle;spacingBottom=7;fillColor=#cce5ff;strokeColor=#36393d;spacingTop=5;" parent="7Juw7eIDhR4qtw-yaTz--1" vertex="1">
          <mxGeometry x="30" y="1485" width="20" height="20" as="geometry" />
        </mxCell>
        <mxCell id="7Juw7eIDhR4qtw-yaTz--13" value="\[ = (1 - e^{\frac{-3}{2}}) - (1 - e^{\frac{-2}{2}}) \]" style="text;html=1;align=center;verticalAlign=middle;whiteSpace=wrap;rounded=0;fontFamily=Helvetica;fontStyle=0;fontSize=17;labelBackgroundColor=none;labelBorderColor=none;flipV=1;fontColor=#990000;" parent="7Juw7eIDhR4qtw-yaTz--1" vertex="1">
          <mxGeometry x="140" y="1696" width="210" height="40" as="geometry" />
        </mxCell>
        <mxCell id="7Juw7eIDhR4qtw-yaTz--14" value="\[ = (1 - e^{\frac{-3}{2}})&amp;nbsp;- (1 - e^{-1})&amp;nbsp;\]" style="text;html=1;align=center;verticalAlign=middle;whiteSpace=wrap;rounded=0;fontFamily=Helvetica;fontStyle=0;fontSize=17;labelBackgroundColor=none;labelBorderColor=none;flipV=1;fontColor=#990000;" parent="7Juw7eIDhR4qtw-yaTz--1" vertex="1">
          <mxGeometry x="170" y="1737" width="180" height="40" as="geometry" />
        </mxCell>
        <mxCell id="7Juw7eIDhR4qtw-yaTz--15" value="\[ = 0.77 - 0.632 \]" style="text;html=1;align=center;verticalAlign=middle;whiteSpace=wrap;rounded=0;fontFamily=Helvetica;fontStyle=0;fontSize=17;labelBackgroundColor=none;labelBorderColor=none;flipV=1;fontColor=#990000;" parent="7Juw7eIDhR4qtw-yaTz--1" vertex="1">
          <mxGeometry x="220" y="1790" width="150" height="33" as="geometry" />
        </mxCell>
        <mxCell id="7Juw7eIDhR4qtw-yaTz--16" value="\[ P(2 \le X \le 3) = F(3) - F(2) \]" style="text;html=1;align=center;verticalAlign=middle;whiteSpace=wrap;rounded=0;fontFamily=Helvetica;fontStyle=0;fontSize=14;labelBackgroundColor=none;labelBorderColor=none;flipV=1;fontColor=#990000;" parent="7Juw7eIDhR4qtw-yaTz--1" vertex="1">
          <mxGeometry x="60" y="1660" width="240" height="30" as="geometry" />
        </mxCell>
        <mxCell id="7Juw7eIDhR4qtw-yaTz--17" value="\[ \approx 0.145 \]" style="text;html=1;align=center;verticalAlign=middle;whiteSpace=wrap;rounded=0;fontFamily=Helvetica;fontStyle=0;fontSize=17;labelBackgroundColor=none;labelBorderColor=none;flipV=1;fontColor=#990000;" parent="7Juw7eIDhR4qtw-yaTz--1" vertex="1">
          <mxGeometry x="290" y="1823" width="70" height="33" as="geometry" />
        </mxCell>
        <mxCell id="7Juw7eIDhR4qtw-yaTz--18" value="2" style="ellipse;whiteSpace=wrap;html=1;strokeWidth=1;fontFamily=Verdana;fontSize=14;verticalAlign=middle;spacingBottom=7;fillColor=#cce5ff;strokeColor=#36393d;spacingTop=5;" parent="7Juw7eIDhR4qtw-yaTz--1" vertex="1">
          <mxGeometry x="30" y="1665" width="20" height="20" as="geometry" />
        </mxCell>
        <mxCell id="PUkwj0wi9g4K9dTl5ut_-0" value="Bernoulli" style="text;html=1;align=left;verticalAlign=middle;whiteSpace=wrap;rounded=0;fontFamily=Mali;fontStyle=1;fontSize=14;labelBackgroundColor=none;labelBorderColor=none;flipV=1;fontColor=#990000;fontSource=https%3A%2F%2Ffonts.googleapis.com%2Fcss%3Ffamily%3DMali;" parent="7Juw7eIDhR4qtw-yaTz--1" vertex="1">
          <mxGeometry x="630" y="1330" width="80" height="30" as="geometry" />
        </mxCell>
        <mxCell id="PUkwj0wi9g4K9dTl5ut_-1" value="Binomial" style="text;html=1;align=left;verticalAlign=middle;whiteSpace=wrap;rounded=0;fontFamily=Mali;fontStyle=1;fontSize=14;labelBackgroundColor=none;labelBorderColor=none;flipV=1;fontColor=#990000;fontSource=https%3A%2F%2Ffonts.googleapis.com%2Fcss%3Ffamily%3DMali;" parent="7Juw7eIDhR4qtw-yaTz--1" vertex="1">
          <mxGeometry x="630" y="1360" width="80" height="30" as="geometry" />
        </mxCell>
        <mxCell id="PUkwj0wi9g4K9dTl5ut_-2" value="Geometric" style="text;html=1;align=left;verticalAlign=middle;whiteSpace=wrap;rounded=0;fontFamily=Mali;fontStyle=1;fontSize=14;labelBackgroundColor=none;labelBorderColor=none;flipV=1;fontColor=#990000;fontSource=https%3A%2F%2Ffonts.googleapis.com%2Fcss%3Ffamily%3DMali;" parent="7Juw7eIDhR4qtw-yaTz--1" vertex="1">
          <mxGeometry x="630" y="1390" width="100" height="30" as="geometry" />
        </mxCell>
        <mxCell id="PUkwj0wi9g4K9dTl5ut_-3" value="Geometric" style="text;html=1;align=left;verticalAlign=middle;whiteSpace=wrap;rounded=0;fontFamily=Mali;fontStyle=1;fontSize=14;labelBackgroundColor=none;labelBorderColor=none;flipV=1;fontColor=#990000;fontSource=https%3A%2F%2Ffonts.googleapis.com%2Fcss%3Ffamily%3DMali;" parent="7Juw7eIDhR4qtw-yaTz--1" vertex="1">
          <mxGeometry x="630" y="1420" width="100" height="30" as="geometry" />
        </mxCell>
        <mxCell id="PUkwj0wi9g4K9dTl5ut_-4" value="Poisson" style="text;html=1;align=left;verticalAlign=middle;whiteSpace=wrap;rounded=0;fontFamily=Mali;fontStyle=1;fontSize=14;labelBackgroundColor=none;labelBorderColor=none;flipV=1;fontColor=#990000;fontSource=https%3A%2F%2Ffonts.googleapis.com%2Fcss%3Ffamily%3DMali;" parent="7Juw7eIDhR4qtw-yaTz--1" vertex="1">
          <mxGeometry x="630" y="1450" width="70" height="30" as="geometry" />
        </mxCell>
        <mxCell id="PUkwj0wi9g4K9dTl5ut_-5" value="Continuous Distributions" style="text;html=1;align=center;verticalAlign=middle;whiteSpace=wrap;rounded=0;fontFamily=Mali;fontStyle=1;fontSize=14;labelBackgroundColor=none;labelBorderColor=none;flipV=1;fontColor=#990000;fontSource=https%3A%2F%2Ffonts.googleapis.com%2Fcss%3Ffamily%3DMali;" parent="7Juw7eIDhR4qtw-yaTz--1" vertex="1">
          <mxGeometry x="440" y="1485" width="180" height="30" as="geometry" />
        </mxCell>
        <mxCell id="PUkwj0wi9g4K9dTl5ut_-6" value="Discrete Distributions" style="text;html=1;align=center;verticalAlign=middle;whiteSpace=wrap;rounded=0;fontFamily=Mali;fontStyle=1;fontSize=14;labelBackgroundColor=none;labelBorderColor=none;flipV=1;fontColor=#990000;fontSource=https%3A%2F%2Ffonts.googleapis.com%2Fcss%3Ffamily%3DMali;" parent="7Juw7eIDhR4qtw-yaTz--1" vertex="1">
          <mxGeometry x="480" y="1380" width="100" height="50" as="geometry" />
        </mxCell>
      </root>
    </mxGraphModel>
  </diagram>
</mxfile>
